<svg width="40" height="40" viewBox="0 0 40 40" fill="none" xmlns="http://www.w3.org/2000/svg">
<g id="compact-disc" clip-path="url(#clip0_757_85)">
<g id="XMLID 88">
<path id="XMLID 89" d="M20 0C31.0461 0 40 8.95391 40 20C40 31.0461 31.0461 40 20 40V29.5652C25.2739 29.5652 29.5652 25.2739 29.5652 20C29.5652 14.7261 25.2739 10.4348 20 10.4348V0Z" fill="#C0AB91"/>
<path id="XMLID 90" d="M20 29.5652V40C8.95391 40 0 31.0461 0 20C0 8.95391 8.95391 0 20 0V10.4348C14.7261 10.4348 10.4348 14.7261 10.4348 20C10.4348 25.2739 14.7261 29.5652 20 29.5652Z" fill="#D9CCBC"/>
<path id="XMLID 91" d="M29.4477 18.5034L39.7564 16.8713C39.0856 12.6014 37.0636 8.77995 34.1415 5.85864L26.7603 13.2399C28.1579 14.6375 29.1259 16.4646 29.4477 18.5034Z" fill="#D9CCBC"/>
<path id="XMLID 92" d="M20 10.4346C25.2739 10.4346 29.5652 14.7259 29.5652 19.9998C29.5652 25.2737 25.2739 29.565 20 29.565V26.0867C23.3565 26.0867 26.087 23.3563 26.087 19.9998C26.087 16.6433 23.3565 13.9128 20 13.9128V10.4346Z" fill="#78B9EB"/>
<path id="XMLID 93" d="M20 13.9131C23.3565 13.9131 26.087 16.6435 26.087 20C26.087 23.3566 23.3565 26.087 20 26.087V21.7392C20.9591 21.7392 21.7391 20.9592 21.7391 20C21.7391 19.0409 20.9591 18.2609 20 18.2609V13.9131Z" fill="#3D9AE2"/>
<path id="XMLID 102" d="M20 21.7392V26.087C16.6435 26.087 13.9131 23.3566 13.9131 20C13.9131 16.6435 16.6435 13.9131 20 13.9131V18.2609C19.0409 18.2609 18.2609 19.0409 18.2609 20C18.2609 20.9592 19.0409 21.7392 20 21.7392Z" fill="#78B9EB"/>
<path id="XMLID 103" d="M10.5523 21.4966L0.243652 23.1287C0.914435 27.3986 2.93643 31.2201 5.85861 34.1414L13.2398 26.7601C11.8422 25.3625 10.8742 23.5355 10.5523 21.4966Z" fill="#EBE5DD"/>
<path id="XMLID 104" d="M13.9128 19.9998C13.9128 23.3563 16.6433 26.0867 19.9998 26.0867V29.565C14.7259 29.565 10.4346 25.2737 10.4346 19.9998C10.4346 14.7259 14.7259 10.4346 19.9998 10.4346V13.9128C16.6433 13.9128 13.9128 16.6433 13.9128 19.9998Z" fill="#B3D8F4"/>
</g>
</g>
<defs>
<clipPath id="clip0_757_85">
<rect width="40" height="40" fill="white"/>
</clipPath>
</defs>
</svg>
