<svg width="50" height="50" viewBox="0 0 50 50" fill="none" xmlns="http://www.w3.org/2000/svg">
<g id="fingerprint" clip-path="url(#clip0_452_3623)">
<path id="Vector" d="M38.6719 21.3594C38.0638 21.3594 37.5703 21.8529 37.5703 22.4609C37.5703 23.069 38.0638 23.5625 38.6719 23.5625C39.2799 23.5625 39.7734 23.069 39.7734 22.4609C39.7734 21.8529 39.2799 21.3594 38.6719 21.3594Z" fill="white" stroke="white" stroke-width="0.25"/>
<path id="Vector_2" d="M15.2344 23.3125C14.6263 23.3125 14.1328 23.806 14.1328 24.4141C14.1328 25.0221 14.6263 25.5156 15.2344 25.5156C15.8424 25.5156 16.3359 25.0221 16.3359 24.4141C16.3359 23.806 15.8424 23.3125 15.2344 23.3125Z" fill="white" stroke="white" stroke-width="0.25"/>
<path id="Vector_3" d="M25 -0.125C14.6751 -0.125 6.32031 8.23175 6.32031 18.5547V49.0234C6.32031 49.6319 6.81344 50.125 7.42188 50.125H42.5781C43.1866 50.125 43.6797 49.6319 43.6797 49.0234V18.5547C43.6797 8.25463 35.3001 -0.125 25 -0.125ZM8.52344 47.9219V18.5547C8.52344 9.44748 15.8943 2.07812 25 2.07812C34.0851 2.07812 41.4766 9.46959 41.4766 18.5547V47.9219H8.52344Z" fill="white" stroke="white" stroke-width="0.25"/>
<path id="Vector_4" d="M19.1406 19.4062C18.5322 19.4062 18.0391 19.8994 18.0391 20.5078V26.3672C18.0391 30.2055 21.1617 33.3281 25 33.3281C27.111 33.3281 29.0846 32.386 30.4137 30.7438C30.7966 30.271 30.7235 29.5773 30.2506 29.1948C29.7777 28.8118 29.0841 28.8849 28.7015 29.3578C27.7921 30.481 26.4431 31.125 25 31.125C22.3766 31.125 20.2422 28.9906 20.2422 26.3672V20.5078C20.2422 19.8994 19.7491 19.4062 19.1406 19.4062Z" fill="white" stroke="white" stroke-width="0.25"/>
<path id="Vector_5" d="M26.3781 11.7273L26.378 11.7273L20.3918 16.9392L20.5098 16.9807C20.5098 16.9807 20.5098 16.9807 20.5098 16.9807C21.301 14.7306 23.5911 13.4298 25.9576 13.89C28.1535 14.3172 29.7578 16.3713 29.7578 18.7863V26.3672C29.7578 26.9757 30.2509 27.4688 30.8594 27.4688C31.4678 27.4688 31.9609 26.9757 31.9609 26.3672V18.7863C31.9609 15.3297 29.6176 12.3576 26.3781 11.7273Z" fill="white" stroke="white" stroke-width="0.25"/>
<path id="Vector_6" d="M30.2779 9.05754C28.6708 8.16136 26.8458 7.6875 25 7.6875M30.2779 9.05754L25 7.6875M30.2779 9.05754C30.8089 9.35362 30.9995 10.0248 30.7031 10.5562M30.2779 9.05754L30.7031 10.5562M25 7.6875C19.0079 7.6875 14.1328 12.5626 14.1328 18.5547M25 7.6875L14.1328 18.5547M30.7031 10.5562C30.407 11.0877 29.7357 11.2779 29.2047 10.9814M30.7031 10.5562L29.2047 10.9814M29.2047 10.9814C27.9252 10.2678 26.4711 9.89062 25 9.89062M29.2047 10.9814L25 9.89062M14.1328 18.5547V20.5078M14.1328 18.5547V20.5078M14.1328 20.5078C14.1328 21.1162 14.6259 21.6094 15.2344 21.6094M14.1328 20.5078L15.2344 21.6094M15.2344 21.6094C15.8428 21.6094 16.3359 21.1162 16.3359 20.5078M15.2344 21.6094L16.3359 20.5078M16.3359 20.5078V18.5547M16.3359 20.5078V18.5547M16.3359 18.5547C16.3359 13.7775 20.2228 9.89062 25 9.89062M16.3359 18.5547L25 9.89062" fill="white" stroke="white" stroke-width="0.25"/>
<path id="Vector_7" d="M16.5082 28.0969C16.3877 27.5004 15.8063 27.1149 15.2099 27.2358L15.2099 27.2358C14.6139 27.3567 14.2284 27.938 14.3493 28.5344C15.3701 33.5759 19.8492 37.2344 25 37.2344C30.9921 37.2344 35.8672 32.3594 35.8672 26.3672V18.5547C35.8672 16.6426 35.3609 14.7597 34.403 13.1102C34.0975 12.584 33.4232 12.405 32.897 12.7105L32.8969 12.7105C32.3711 13.016 32.1921 13.6902 32.4976 14.2165L32.4976 14.2165C33.2605 15.5302 33.6641 17.0306 33.6641 18.5547V26.3672C33.6641 31.1444 29.7772 35.0313 25 35.0313C20.8937 35.0313 17.3222 32.1144 16.5082 28.0969ZM16.5082 28.0969L16.3856 28.1216M16.5082 28.0969C16.5082 28.0968 16.5082 28.0968 16.5082 28.0968L16.3856 28.1216M16.3856 28.1216C17.2115 32.1976 20.8343 35.1563 25 35.1563C29.8462 35.1563 33.7891 31.2134 33.7891 26.3672V18.5547C33.7891 17.0086 33.3797 15.4866 32.6057 14.1537L34.2949 13.173C35.2417 14.8034 35.7422 16.6646 35.7422 18.5547V26.3672C35.7422 32.2903 30.9231 37.1094 25 37.1094C19.9085 37.1094 15.4808 33.4927 14.4718 28.5096C14.3646 27.9809 14.7064 27.4655 15.2348 27.3583C15.7635 27.2511 16.2788 27.5929 16.3856 28.1216Z" fill="white" stroke="white" stroke-width="0.25"/>
<path id="Vector_8" d="M33.9786 35.1645L33.9786 35.1645C33.5531 35.5991 33.5599 36.2965 33.9945 36.7222C34.43 37.1491 35.1275 37.1399 35.5525 36.7067L35.5526 36.7067C38.274 33.9287 39.7734 30.2562 39.7734 26.3672C39.7734 25.7588 39.2803 25.2656 38.6719 25.2656C38.0634 25.2656 37.5703 25.7588 37.5703 26.3672C37.5703 29.6769 36.2949 32.8006 33.9786 35.1645Z" fill="white" stroke="white" stroke-width="0.25"/>
<path id="Vector_9" d="M30.3869 37.7285L30.3869 37.7285C28.6979 38.5308 26.8859 38.9375 25 38.9375C18.0687 38.9375 12.4297 33.2985 12.4297 26.3672V19.0312C12.4297 13.9868 15.2563 9.34559 19.6251 7.20611L19.5702 7.09384L19.6251 7.2061C20.1716 6.93846 20.3975 6.27879 20.1299 5.73233L20.1299 5.73229C19.8622 5.1863 19.2026 4.95992 18.6561 5.22758C13.5335 7.73619 10.2266 13.1553 10.2266 19.0312V26.3672C10.2266 34.5135 16.8537 41.1407 25 41.1407C27.2145 41.1407 29.3454 40.6624 31.3319 39.7187L31.2782 39.6058L31.3319 39.7186C31.8813 39.4575 32.1155 38.8005 31.8542 38.2509C31.5934 37.7018 30.9364 37.4678 30.3869 37.7285Z" fill="white" stroke="white" stroke-width="0.25"/>
<path id="Vector_10" d="M21.9583 5.1876L21.9583 5.1875C21.8658 4.58606 22.2779 4.02363 22.8791 3.93107L21.9583 5.1876ZM21.9583 5.1876C22.0512 5.78851 22.6134 6.2013 23.2147 6.10801M21.9583 5.1876L23.2147 6.10801M23.2147 6.10801C30.6435 4.96654 37.5704 10.8624 37.5704 18.5546M23.2147 6.10801L37.5704 18.5546M37.5704 18.5546C37.5704 19.1631 38.0635 19.6562 38.6719 19.6562M37.5704 18.5546L38.6719 19.6562M38.6719 19.6562C39.2804 19.6562 39.7735 19.1631 39.7735 18.5546M38.6719 19.6562L39.7735 18.5546M39.7735 18.5546C39.7735 9.40708 31.5193 2.5962 22.8791 3.93106L39.7735 18.5546Z" fill="white" stroke="white" stroke-width="0.25"/>
<path id="Vector_11" d="M25 27.2188C24.53 27.2188 24.1484 26.8372 24.1484 26.3672C24.1484 25.7588 23.6553 25.2656 23.0469 25.2656C22.4384 25.2656 21.9453 25.7588 21.9453 26.3672C21.9453 28.0548 23.3124 29.4219 25 29.4219C26.6846 29.4219 28.0547 28.0518 28.0547 26.3672V18.5547C28.0547 16.8671 26.6876 15.5 25 15.5C23.3154 15.5 21.9453 16.8701 21.9453 18.5547C21.9453 19.1631 22.4384 19.6563 23.0469 19.6563C23.6553 19.6563 24.1484 19.1631 24.1484 18.5547C24.1484 18.0851 24.5304 17.7031 25 17.7031C25.47 17.7031 25.8516 18.0847 25.8516 18.5547V26.3672C25.8516 26.8368 25.4696 27.2188 25 27.2188Z" fill="white" stroke="white" stroke-width="0.25"/>
</g>
<defs>
<clipPath id="clip0_452_3623">
<rect width="50" height="50" fill="white"/>
</clipPath>
</defs>
</svg>
