<svg width="52" height="52" viewBox="0 0 52 52" fill="none" xmlns="http://www.w3.org/2000/svg">
<g id="Group">
<g id="Vector">
<mask id="path-1-outside-1_452_3589" maskUnits="userSpaceOnUse" x="0" y="0" width="52" height="52" fill="black">
<rect fill="white" width="52" height="52"/>
<path d="M50.4445 3.86314C50.7505 3.86314 51 3.54243 51 3.14736V1.71579C51 1.32031 50.7505 1 50.4445 1H1.55551C1.24922 0.999592 1 1.3199 1 1.71579V3.14613C1 3.5412 1.24922 3.86192 1.55551 3.86192C2.9855 3.86314 4.14884 5.36213 4.14884 7.20348C4.14884 9.04401 2.98582 10.5422 1.55551 10.5434C1.24922 10.5434 1 10.8637 1 11.2596V13.4086C1 13.8037 1.24922 14.1244 1.55551 14.1244C2.9855 14.1244 4.14884 15.6229 4.14884 17.4659C4.14884 19.3065 2.98582 20.8046 1.55551 20.8046C1.24922 20.8042 1 21.1245 1 21.5204V23.6694C1 24.0645 1.24922 24.3852 1.55551 24.3852C2.9855 24.3864 4.14884 25.8842 4.14884 27.7255C4.14884 29.5669 2.98582 31.0659 1.55551 31.0671C1.24922 31.0667 1 31.3866 1 31.7825V33.2144C1 33.6099 1.24922 33.9302 1.55551 33.9302H6.59061L7.16958 35.4807C7.30402 35.8386 7.6398 35.9869 7.91058 35.8161C8.95882 35.1673 10.2208 35.7405 10.7221 37.0912C11.2249 38.4419 10.7817 40.0663 9.73184 40.7151C9.59962 40.7976 9.49752 40.9447 9.4487 41.1232C9.39987 41.3022 9.40843 41.5011 9.47184 41.6715L10.0838 43.3102C10.2173 43.6681 10.5515 43.8164 10.8238 43.6456C11.8714 42.9968 13.134 43.57 13.6353 44.9207C14.1372 46.2685 13.694 47.8958 12.6451 48.5446C12.3696 48.7154 12.2516 49.1431 12.3851 49.4998L12.7916 50.5931C12.887 50.8488 13.0874 51 13.2929 51C13.3737 51 13.4552 50.9775 13.5326 50.9301L41.0439 33.9302H48.1273H50.4432C50.7501 33.9302 50.9987 33.6099 50.9987 33.2144V31.7825C50.9987 31.3866 50.7501 31.0667 50.4432 31.0667C49.0142 31.0667 47.8518 29.5693 47.8518 27.7263C47.8518 25.8838 49.0142 24.3864 50.4432 24.3864C50.7501 24.3864 50.9987 24.0657 50.9987 23.6706V21.5216C50.9987 21.1262 50.7501 20.8059 50.4432 20.8059C49.0142 20.8059 47.8518 19.3077 47.8518 17.4659C47.8518 15.6229 49.0142 14.1244 50.4432 14.1244C50.7501 14.1244 50.9987 13.8037 50.9987 13.4086V11.2608C50.9987 10.8653 50.7501 10.545 50.4432 10.545C49.0142 10.545 47.8518 9.04564 47.8518 7.20348C47.8534 5.36213 49.0154 3.86314 50.4445 3.86314ZM13.9635 49.0761C14.9344 47.868 15.253 45.9523 14.6388 44.3026C13.953 42.4612 12.3432 41.5653 10.8654 42.1021L10.6945 41.6417C11.23 41.1498 11.6352 40.4577 11.8588 39.6438C12.1441 38.5979 12.0962 37.4712 11.724 36.4727C11.3518 35.4742 10.7008 34.7208 9.88974 34.3531C9.25496 34.0634 8.58182 34.0397 7.9518 34.2718L7.82434 33.9294H8.59292H12.6239L16.3859 43.4311C16.4842 43.6783 16.6782 43.8213 16.8809 43.8213C16.9573 43.8213 17.0378 43.8001 17.1111 43.7568L33.8451 33.9294H38.4782L13.9635 49.0761ZM17.2886 38.4129C17.3723 38.7009 17.5844 38.8782 17.8089 38.8782C17.8746 38.8782 17.9386 38.8647 18.0042 38.8325L28.1594 33.9315H31.1672L17.1345 42.1736L13.8712 33.9315H24.9909L17.613 37.4912C17.3267 37.6297 17.1811 38.0419 17.2886 38.4129ZM49.889 11.9235V12.7463C48.1096 13.0932 46.7424 15.0779 46.7424 17.4659C46.7424 19.8539 48.1096 21.8379 49.889 22.1831V23.0071C48.1096 23.354 46.7424 25.3371 46.7424 27.7251C46.7424 30.1131 48.1096 32.097 49.889 32.4423V32.497H48.1289H8.59324H2.11102V32.4423C3.89201 32.0942 5.25986 30.1103 5.25986 27.7235C5.25986 25.3371 3.89201 23.3524 2.11102 23.0055V22.1815C3.89201 21.8346 5.25986 19.8523 5.25986 17.4659C5.25986 15.0779 3.89201 13.0915 2.11102 12.7463V11.9223C3.89201 11.5738 5.25986 9.59147 5.25986 7.20511C5.25986 4.81834 3.89201 2.83236 2.11102 2.4855V2.43321H49.889V2.48713C48.1096 2.834 46.7424 4.81711 46.7424 7.20511C46.7424 9.5927 48.1115 11.5766 49.889 11.9235Z"/>
</mask>
<path d="M50.4445 3.86314C50.7505 3.86314 51 3.54243 51 3.14736V1.71579C51 1.32031 50.7505 1 50.4445 1H1.55551C1.24922 0.999592 1 1.3199 1 1.71579V3.14613C1 3.5412 1.24922 3.86192 1.55551 3.86192C2.9855 3.86314 4.14884 5.36213 4.14884 7.20348C4.14884 9.04401 2.98582 10.5422 1.55551 10.5434C1.24922 10.5434 1 10.8637 1 11.2596V13.4086C1 13.8037 1.24922 14.1244 1.55551 14.1244C2.9855 14.1244 4.14884 15.6229 4.14884 17.4659C4.14884 19.3065 2.98582 20.8046 1.55551 20.8046C1.24922 20.8042 1 21.1245 1 21.5204V23.6694C1 24.0645 1.24922 24.3852 1.55551 24.3852C2.9855 24.3864 4.14884 25.8842 4.14884 27.7255C4.14884 29.5669 2.98582 31.0659 1.55551 31.0671C1.24922 31.0667 1 31.3866 1 31.7825V33.2144C1 33.6099 1.24922 33.9302 1.55551 33.9302H6.59061L7.16958 35.4807C7.30402 35.8386 7.6398 35.9869 7.91058 35.8161C8.95882 35.1673 10.2208 35.7405 10.7221 37.0912C11.2249 38.4419 10.7817 40.0663 9.73184 40.7151C9.59962 40.7976 9.49752 40.9447 9.4487 41.1232C9.39987 41.3022 9.40843 41.5011 9.47184 41.6715L10.0838 43.3102C10.2173 43.6681 10.5515 43.8164 10.8238 43.6456C11.8714 42.9968 13.134 43.57 13.6353 44.9207C14.1372 46.2685 13.694 47.8958 12.6451 48.5446C12.3696 48.7154 12.2516 49.1431 12.3851 49.4998L12.7916 50.5931C12.887 50.8488 13.0874 51 13.2929 51C13.3737 51 13.4552 50.9775 13.5326 50.9301L41.0439 33.9302H48.1273H50.4432C50.7501 33.9302 50.9987 33.6099 50.9987 33.2144V31.7825C50.9987 31.3866 50.7501 31.0667 50.4432 31.0667C49.0142 31.0667 47.8518 29.5693 47.8518 27.7263C47.8518 25.8838 49.0142 24.3864 50.4432 24.3864C50.7501 24.3864 50.9987 24.0657 50.9987 23.6706V21.5216C50.9987 21.1262 50.7501 20.8059 50.4432 20.8059C49.0142 20.8059 47.8518 19.3077 47.8518 17.4659C47.8518 15.6229 49.0142 14.1244 50.4432 14.1244C50.7501 14.1244 50.9987 13.8037 50.9987 13.4086V11.2608C50.9987 10.8653 50.7501 10.545 50.4432 10.545C49.0142 10.545 47.8518 9.04564 47.8518 7.20348C47.8534 5.36213 49.0154 3.86314 50.4445 3.86314ZM13.9635 49.0761C14.9344 47.868 15.253 45.9523 14.6388 44.3026C13.953 42.4612 12.3432 41.5653 10.8654 42.1021L10.6945 41.6417C11.23 41.1498 11.6352 40.4577 11.8588 39.6438C12.1441 38.5979 12.0962 37.4712 11.724 36.4727C11.3518 35.4742 10.7008 34.7208 9.88974 34.3531C9.25496 34.0634 8.58182 34.0397 7.9518 34.2718L7.82434 33.9294H8.59292H12.6239L16.3859 43.4311C16.4842 43.6783 16.6782 43.8213 16.8809 43.8213C16.9573 43.8213 17.0378 43.8001 17.1111 43.7568L33.8451 33.9294H38.4782L13.9635 49.0761ZM17.2886 38.4129C17.3723 38.7009 17.5844 38.8782 17.8089 38.8782C17.8746 38.8782 17.9386 38.8647 18.0042 38.8325L28.1594 33.9315H31.1672L17.1345 42.1736L13.8712 33.9315H24.9909L17.613 37.4912C17.3267 37.6297 17.1811 38.0419 17.2886 38.4129ZM49.889 11.9235V12.7463C48.1096 13.0932 46.7424 15.0779 46.7424 17.4659C46.7424 19.8539 48.1096 21.8379 49.889 22.1831V23.0071C48.1096 23.354 46.7424 25.3371 46.7424 27.7251C46.7424 30.1131 48.1096 32.097 49.889 32.4423V32.497H48.1289H8.59324H2.11102V32.4423C3.89201 32.0942 5.25986 30.1103 5.25986 27.7235C5.25986 25.3371 3.89201 23.3524 2.11102 23.0055V22.1815C3.89201 21.8346 5.25986 19.8523 5.25986 17.4659C5.25986 15.0779 3.89201 13.0915 2.11102 12.7463V11.9223C3.89201 11.5738 5.25986 9.59147 5.25986 7.20511C5.25986 4.81834 3.89201 2.83236 2.11102 2.4855V2.43321H49.889V2.48713C48.1096 2.834 46.7424 4.81711 46.7424 7.20511C46.7424 9.5927 48.1115 11.5766 49.889 11.9235Z" fill="white"/>
<path d="M50.4445 3.86314C50.7505 3.86314 51 3.54243 51 3.14736V1.71579C51 1.32031 50.7505 1 50.4445 1H1.55551C1.24922 0.999592 1 1.3199 1 1.71579V3.14613C1 3.5412 1.24922 3.86192 1.55551 3.86192C2.9855 3.86314 4.14884 5.36213 4.14884 7.20348C4.14884 9.04401 2.98582 10.5422 1.55551 10.5434C1.24922 10.5434 1 10.8637 1 11.2596V13.4086C1 13.8037 1.24922 14.1244 1.55551 14.1244C2.9855 14.1244 4.14884 15.6229 4.14884 17.4659C4.14884 19.3065 2.98582 20.8046 1.55551 20.8046C1.24922 20.8042 1 21.1245 1 21.5204V23.6694C1 24.0645 1.24922 24.3852 1.55551 24.3852C2.9855 24.3864 4.14884 25.8842 4.14884 27.7255C4.14884 29.5669 2.98582 31.0659 1.55551 31.0671C1.24922 31.0667 1 31.3866 1 31.7825V33.2144C1 33.6099 1.24922 33.9302 1.55551 33.9302H6.59061L7.16958 35.4807C7.30402 35.8386 7.6398 35.9869 7.91058 35.8161C8.95882 35.1673 10.2208 35.7405 10.7221 37.0912C11.2249 38.4419 10.7817 40.0663 9.73184 40.7151C9.59962 40.7976 9.49752 40.9447 9.4487 41.1232C9.39987 41.3022 9.40843 41.5011 9.47184 41.6715L10.0838 43.3102C10.2173 43.6681 10.5515 43.8164 10.8238 43.6456C11.8714 42.9968 13.134 43.57 13.6353 44.9207C14.1372 46.2685 13.694 47.8958 12.6451 48.5446C12.3696 48.7154 12.2516 49.1431 12.3851 49.4998L12.7916 50.5931C12.887 50.8488 13.0874 51 13.2929 51C13.3737 51 13.4552 50.9775 13.5326 50.9301L41.0439 33.9302H48.1273H50.4432C50.7501 33.9302 50.9987 33.6099 50.9987 33.2144V31.7825C50.9987 31.3866 50.7501 31.0667 50.4432 31.0667C49.0142 31.0667 47.8518 29.5693 47.8518 27.7263C47.8518 25.8838 49.0142 24.3864 50.4432 24.3864C50.7501 24.3864 50.9987 24.0657 50.9987 23.6706V21.5216C50.9987 21.1262 50.7501 20.8059 50.4432 20.8059C49.0142 20.8059 47.8518 19.3077 47.8518 17.4659C47.8518 15.6229 49.0142 14.1244 50.4432 14.1244C50.7501 14.1244 50.9987 13.8037 50.9987 13.4086V11.2608C50.9987 10.8653 50.7501 10.545 50.4432 10.545C49.0142 10.545 47.8518 9.04564 47.8518 7.20348C47.8534 5.36213 49.0154 3.86314 50.4445 3.86314ZM13.9635 49.0761C14.9344 47.868 15.253 45.9523 14.6388 44.3026C13.953 42.4612 12.3432 41.5653 10.8654 42.1021L10.6945 41.6417C11.23 41.1498 11.6352 40.4577 11.8588 39.6438C12.1441 38.5979 12.0962 37.4712 11.724 36.4727C11.3518 35.4742 10.7008 34.7208 9.88974 34.3531C9.25496 34.0634 8.58182 34.0397 7.9518 34.2718L7.82434 33.9294H8.59292H12.6239L16.3859 43.4311C16.4842 43.6783 16.6782 43.8213 16.8809 43.8213C16.9573 43.8213 17.0378 43.8001 17.1111 43.7568L33.8451 33.9294H38.4782L13.9635 49.0761ZM17.2886 38.4129C17.3723 38.7009 17.5844 38.8782 17.8089 38.8782C17.8746 38.8782 17.9386 38.8647 18.0042 38.8325L28.1594 33.9315H31.1672L17.1345 42.1736L13.8712 33.9315H24.9909L17.613 37.4912C17.3267 37.6297 17.1811 38.0419 17.2886 38.4129ZM49.889 11.9235V12.7463C48.1096 13.0932 46.7424 15.0779 46.7424 17.4659C46.7424 19.8539 48.1096 21.8379 49.889 22.1831V23.0071C48.1096 23.354 46.7424 25.3371 46.7424 27.7251C46.7424 30.1131 48.1096 32.097 49.889 32.4423V32.497H48.1289H8.59324H2.11102V32.4423C3.89201 32.0942 5.25986 30.1103 5.25986 27.7235C5.25986 25.3371 3.89201 23.3524 2.11102 23.0055V22.1815C3.89201 21.8346 5.25986 19.8523 5.25986 17.4659C5.25986 15.0779 3.89201 13.0915 2.11102 12.7463V11.9223C3.89201 11.5738 5.25986 9.59147 5.25986 7.20511C5.25986 4.81834 3.89201 2.83236 2.11102 2.4855V2.43321H49.889V2.48713C48.1096 2.834 46.7424 4.81711 46.7424 7.20511C46.7424 9.5927 48.1115 11.5766 49.889 11.9235Z" stroke="white" mask="url(#path-1-outside-1_452_3589)"/>
</g>
<path id="Vector_2" d="M44.9544 7.20631V7.20611C44.9541 6.73478 44.6478 6.24011 44.1486 6.24011H7.85214C7.35228 6.24011 7.04663 6.73491 7.04663 7.2059V27.7251C7.04663 28.1961 7.35228 28.6909 7.85214 28.6909H44.1489C44.648 28.6909 44.9544 28.1963 44.9544 27.7251V7.20631ZM43.3431 26.7593H8.65765V8.17168H43.3431V26.7593Z" fill="white" stroke="white" stroke-width="0.5"/>
<path id="Vector_3" d="M9.4266 11.5108H42.2045L8.87109 10.545L8.62109 10.5448C8.62109 10.5448 8.62109 10.5449 8.62109 10.5449C8.62109 10.5449 8.62109 10.545 8.62109 10.545C8.6208 11.0153 8.92679 11.5108 9.4266 11.5108Z" fill="white" stroke="white" stroke-width="0.5"/>
<path id="Vector_4" d="M9.55551 25.6816H42.3334L9 24.7158L8.75 24.7156C8.75 24.7156 8.75 24.7157 8.75 24.7157C8.75 24.7157 8.75 24.7158 8.75 24.7158C8.74971 25.1861 9.0557 25.6816 9.55551 25.6816Z" fill="white" stroke="white" stroke-width="0.5"/>
</g>
</svg>
