<svg width="22" height="21" viewBox="0 0 22 21" fill="none" xmlns="http://www.w3.org/2000/svg">
<g id="Group">
<g id="Layer 1 65">
<g id="Group_2">
<path id="Vector" d="M21.9561 8.58687C21.8798 8.42444 21.7169 8.32053 21.5367 8.32053H20.1666C19.2955 3.59342 15.1446 0 10.1694 0C4.56234 0 0 4.56234 0 10.1694C0 15.7765 4.56187 20.3384 10.1694 20.3384C13.7881 20.3384 17.163 18.3907 18.9768 15.2565C19.2323 14.8142 19.0816 14.2492 18.6388 13.9931C18.1969 13.7371 17.6315 13.8878 17.3764 14.3302C15.8917 16.8957 13.13 18.49 10.1694 18.49C5.58181 18.49 1.8489 14.7575 1.8489 10.1704C1.8489 5.58228 5.58181 1.84984 10.1694 1.84984C14.1209 1.84984 17.4316 4.62132 18.2751 8.321H16.9158C16.7356 8.321 16.5732 8.42491 16.4964 8.58733C16.4201 8.74976 16.4449 8.9412 16.5601 9.07928L18.8714 11.8526C18.9594 11.958 19.0891 12.0188 19.2267 12.0188C19.3639 12.0188 19.494 11.9575 19.5815 11.8526L21.8929 9.07928C22.008 8.94073 22.0324 8.74929 21.9561 8.58687Z" fill="#716754"/>
<path id="Vector_2" d="M10.1694 2.3114C9.65876 2.3114 9.24498 2.72518 9.24498 3.23585V8.84528C8.82699 9.1383 8.55176 9.62135 8.55176 10.1699C8.55176 11.0621 9.27774 11.7881 10.1699 11.7881C10.4142 11.7881 10.6445 11.7296 10.8524 11.6317L14.068 13.4877C14.2141 13.5724 14.3723 13.6122 14.5296 13.6122C14.8488 13.6122 15.1596 13.4465 15.3309 13.1497C15.586 12.7083 15.4348 12.1424 14.992 11.8873L11.7731 10.0286C11.73 9.53991 11.4758 9.11302 11.0948 8.84622V3.23585C11.0939 2.72565 10.6796 2.3114 10.1694 2.3114ZM10.1694 10.8627C9.78701 10.8627 9.47621 10.5514 9.47621 10.1699C9.47621 9.78799 9.78748 9.47672 10.1694 9.47672C10.5514 9.47672 10.8627 9.78799 10.8627 10.1699C10.8627 10.5514 10.5514 10.8627 10.1694 10.8627Z" fill="#716754"/>
</g>
</g>
</g>
</svg>
