<svg width="50" height="50" viewBox="0 0 50 50" fill="none" xmlns="http://www.w3.org/2000/svg">
<g id="Group">
<g id="Group_2">
<g id="Vector">
<path d="M5.38085 50C8.35205 50 10.7617 47.2519 10.7617 43.8892C10.7617 40.5265 8.35205 37.7667 5.38085 37.7667C2.40964 37.7667 0 40.5149 0 43.8776C0 47.2403 2.41985 50 5.38085 50ZM5.38085 40.6076C6.97366 40.6076 8.26016 42.0803 8.26016 43.8776C8.26016 45.6749 6.96345 47.1475 5.38085 47.1475C3.79824 47.1475 2.50153 45.6749 2.50153 43.8776C2.50153 42.0803 3.79824 40.6076 5.38085 40.6076Z" fill="white"/>
<path d="M5.38085 50C8.35205 50 10.7617 47.2519 10.7617 43.8892C10.7617 40.5265 8.35205 37.7667 5.38085 37.7667C2.40964 37.7667 0 40.5149 0 43.8776C0 47.2403 2.41985 50 5.38085 50ZM5.38085 40.6076C6.97366 40.6076 8.26016 42.0803 8.26016 43.8776C8.26016 45.6749 6.96345 47.1475 5.38085 47.1475C3.79824 47.1475 2.50153 45.6749 2.50153 43.8776C2.50153 42.0803 3.79824 40.6076 5.38085 40.6076Z" stroke="#716754"/>
</g>
<g id="Vector_2">
<path d="M5.38085 31.1109C8.35205 31.1109 10.7617 28.3627 10.7617 25C10.7617 21.6373 8.35205 18.8892 5.38085 18.8892C2.40964 18.8892 0 21.6257 0 25C0 28.3743 2.41985 31.1109 5.38085 31.1109ZM5.38085 21.7301C6.97366 21.7301 8.26016 23.2027 8.26016 25C8.26016 26.7973 6.96345 28.27 5.38085 28.27C3.79824 28.27 2.50153 26.8089 2.50153 25C2.50153 23.1911 3.79824 21.7301 5.38085 21.7301Z" fill="white"/>
<path d="M5.38085 31.1109C8.35205 31.1109 10.7617 28.3627 10.7617 25C10.7617 21.6373 8.35205 18.8892 5.38085 18.8892C2.40964 18.8892 0 21.6257 0 25C0 28.3743 2.41985 31.1109 5.38085 31.1109ZM5.38085 21.7301C6.97366 21.7301 8.26016 23.2027 8.26016 25C8.26016 26.7973 6.96345 28.27 5.38085 28.27C3.79824 28.27 2.50153 26.8089 2.50153 25C2.50153 23.1911 3.79824 21.7301 5.38085 21.7301Z" stroke="#716754"/>
</g>
<g id="Vector_3">
<path d="M5.38085 12.2217C8.35205 12.2217 10.7617 9.47357 10.7617 6.11086C10.7617 2.73655 8.34184 0 5.38085 0C2.41985 0 0 2.74815 0 6.11086C0 9.47357 2.41985 12.2217 5.38085 12.2217ZM5.38085 2.82932C6.97366 2.82932 8.26016 4.30195 8.26016 6.09926C8.26016 7.90816 6.96345 9.36921 5.38085 9.36921C3.79824 9.36921 2.50153 7.89657 2.50153 6.09926C2.50153 4.30195 3.79824 2.82932 5.38085 2.82932Z" fill="white"/>
<path d="M5.38085 12.2217C8.35205 12.2217 10.7617 9.47357 10.7617 6.11086C10.7617 2.73655 8.34184 0 5.38085 0C2.41985 0 0 2.74815 0 6.11086C0 9.47357 2.41985 12.2217 5.38085 12.2217ZM5.38085 2.82932C6.97366 2.82932 8.26016 4.30195 8.26016 6.09926C8.26016 7.90816 6.96345 9.36921 5.38085 9.36921C3.79824 9.36921 2.50153 7.89657 2.50153 6.09926C2.50153 4.30195 3.79824 2.82932 5.38085 2.82932Z" stroke="#716754"/>
</g>
<g id="Vector_4">
<path d="M17.96 45.3154H48.7441C49.4384 45.3154 50 44.6776 50 43.8891C50 43.1006 49.4384 42.4629 48.7441 42.4629H17.96C17.2657 42.4629 16.7041 43.1006 16.7041 43.8891C16.7041 44.6776 17.2657 45.3154 17.96 45.3154Z" fill="white"/>
<path d="M17.96 45.3154H48.7441C49.4384 45.3154 50 44.6776 50 43.8891C50 43.1006 49.4384 42.4629 48.7441 42.4629H17.96C17.2657 42.4629 16.7041 43.1006 16.7041 43.8891C16.7041 44.6776 17.2657 45.3154 17.96 45.3154Z" stroke="#716754"/>
</g>
<g id="Vector_5">
<path d="M17.96 26.4262H48.7441C49.4384 26.4262 50 25.7885 50 25C50 24.2115 49.4384 23.5737 48.7441 23.5737H17.96C17.2657 23.5737 16.7041 24.2115 16.7041 25C16.7041 25.7885 17.2657 26.4262 17.96 26.4262Z" fill="white"/>
<path d="M17.96 26.4262H48.7441C49.4384 26.4262 50 25.7885 50 25C50 24.2115 49.4384 23.5737 48.7441 23.5737H17.96C17.2657 23.5737 16.7041 24.2115 16.7041 25C16.7041 25.7885 17.2657 26.4262 17.96 26.4262Z" stroke="#716754"/>
</g>
<g id="Vector_6">
<path d="M17.96 7.54867H48.7441C49.4384 7.54867 50 6.91092 50 6.12242C50 5.33392 49.4384 4.69617 48.7441 4.69617H17.96C17.2657 4.69617 16.7041 5.33392 16.7041 6.12242C16.7041 6.91092 17.2657 7.54867 17.96 7.54867Z" fill="white"/>
<path d="M17.96 7.54867H48.7441C49.4384 7.54867 50 6.91092 50 6.12242C50 5.33392 49.4384 4.69617 48.7441 4.69617H17.96C17.2657 4.69617 16.7041 5.33392 16.7041 6.12242C16.7041 6.91092 17.2657 7.54867 17.96 7.54867Z" stroke="#716754"/>
</g>
</g>
</g>
</svg>
