<svg width="18" height="18" viewBox="0 0 18 18" fill="none" xmlns="http://www.w3.org/2000/svg">
<g id="home" clip-path="url(#clip0_570_22)">
<g id="Group">
<g id="Group_2">
<path id="Vector" d="M9.00021 4.72961L2.5806 10.0219C2.5806 10.0294 2.57872 10.0404 2.57497 10.0553C2.57129 10.0702 2.56934 10.081 2.56934 10.0887V15.4477C2.56934 15.6412 2.64008 15.8089 2.78152 15.9501C2.92292 16.0914 3.09037 16.1624 3.2839 16.1624H7.571V11.8751H10.4295V16.1626H14.7165C14.91 16.1626 15.0777 16.0917 15.2189 15.9501C15.3603 15.809 15.4313 15.6412 15.4313 15.4477V10.0887C15.4313 10.0589 15.4273 10.0365 15.4201 10.0219L9.00021 4.72961Z" fill="white"/>
<path id="Vector_2" d="M17.8758 8.8161L15.4309 6.78412V2.22887C15.4309 2.12473 15.3974 2.03909 15.3302 1.97207C15.2636 1.90512 15.178 1.87164 15.0736 1.87164H12.93C12.8258 1.87164 12.7401 1.90512 12.6731 1.97207C12.6062 2.03909 12.5727 2.12477 12.5727 2.22887V4.40597L9.8486 2.12829C9.61069 1.93476 9.3278 1.83801 9.00026 1.83801C8.67275 1.83801 8.3899 1.93476 8.15175 2.12829L0.124063 8.8161C0.0496462 8.87554 0.00885955 8.95555 0.00127316 9.05605C-0.00627412 9.15647 0.0197308 9.24419 0.079366 9.31856L0.771565 10.1448C0.831201 10.2117 0.909254 10.2527 1.00604 10.2676C1.09539 10.2752 1.18475 10.249 1.27411 10.1895L9.00002 3.74725L16.726 10.1895C16.7857 10.2414 16.8637 10.2673 16.9605 10.2673H16.994C17.0907 10.2526 17.1686 10.2114 17.2285 10.1446L17.9208 9.31852C17.9803 9.24399 18.0064 9.15643 17.9987 9.05589C17.991 8.95567 17.9501 8.87566 17.8758 8.8161Z" fill="white"/>
</g>
</g>
</g>
<defs>
<clipPath id="clip0_570_22">
<rect width="18" height="18" fill="white"/>
</clipPath>
</defs>
</svg>
