<svg width="100" height="72" viewBox="0 0 100 72" fill="none" xmlns="http://www.w3.org/2000/svg">
<g id="Group">
<g id="Group 2">
<g id="Group_2">
<path id="Vector" d="M9.71944 61.2061H6.10011V60.7615C6.17397 60.7615 6.3217 60.7615 6.54329 60.7615C6.76488 60.7615 6.83875 60.6874 6.91261 60.6874C7.06034 60.6133 7.1342 60.5392 7.20807 60.4651C7.20807 60.3169 7.28193 60.2428 7.28193 60.0946V56.9825H3.14554V60.0206C3.14554 60.1687 3.14554 60.3169 3.21941 60.391C3.29327 60.4651 3.36714 60.6133 3.51486 60.6874C3.58873 60.6874 3.66259 60.6874 3.88418 60.7615C4.03191 60.7615 4.17964 60.7615 4.2535 60.7615V61.2061H0.634167V60.7615C0.708031 60.7615 0.855759 60.7615 1.07735 60.6874C1.29894 60.6133 1.37281 60.6133 1.44667 60.6133C1.5944 60.5392 1.66826 60.4651 1.74213 60.391C1.81599 60.3169 1.81599 60.1687 1.81599 60.0206V53.648C1.81599 53.4998 1.81599 53.4257 1.74213 53.2775C1.66826 53.2034 1.5944 53.0552 1.44667 53.0552C1.29894 52.9811 1.22508 52.9811 1.00349 52.907C0.855759 52.8329 0.708031 52.8329 0.560303 52.8329V52.3883H4.17964V52.8329C4.03191 52.8329 3.95805 52.8329 3.73646 52.907C3.58873 52.907 3.441 52.9811 3.36714 52.9811C3.21941 53.0552 3.14554 53.1293 3.07168 53.2034C2.99782 53.3516 2.99782 53.4257 2.99782 53.5739V56.3156H7.28193V53.648C7.28193 53.4998 7.28193 53.4257 7.20807 53.2775C7.1342 53.1293 7.06034 53.0552 6.91261 53.0552C6.76488 52.9811 6.69102 52.9811 6.54329 52.907C6.39556 52.8329 6.24783 52.8329 6.10011 52.8329V52.3883H9.71944V52.8329C9.57172 52.8329 9.49785 52.8329 9.27626 52.907C9.12853 52.907 8.9808 52.9811 8.90694 52.9811C8.75921 53.0552 8.68535 53.1293 8.61148 53.2034C8.53762 53.3516 8.53762 53.4257 8.53762 53.5739V60.0206C8.53762 60.1687 8.53762 60.3169 8.61148 60.391C8.68535 60.4651 8.75921 60.6133 8.90694 60.6874C8.9808 60.7615 9.12853 60.7615 9.27626 60.8356C9.49785 60.7615 9.64558 60.7615 9.71944 60.7615V61.2061Z" fill="white"/>
<path id="Vector_2" d="M18.066 53.4257C18.4353 53.7962 18.7307 54.3149 18.9523 54.9077C19.1739 55.5005 19.2478 56.0933 19.2478 56.8343C19.2478 57.5012 19.1001 58.1681 18.8785 58.7609C18.6569 59.3537 18.3614 59.7983 17.9182 60.2429C17.5489 60.6133 17.1057 60.9838 16.5887 61.132C16.0716 61.3543 15.5546 61.4284 14.9637 61.4284C14.3728 61.4284 13.7818 61.2802 13.2648 61.0579C12.7477 60.8356 12.3046 60.5392 11.9352 60.0946C11.5659 59.7242 11.2705 59.2055 11.0489 58.6127C10.8273 58.0199 10.7534 57.4271 10.7534 56.7602C10.7534 56.0192 10.9011 55.4264 11.1227 54.8336C11.3443 54.2408 11.6398 53.7962 12.083 53.3516C12.4523 52.9811 12.8955 52.6106 13.4125 52.3883C13.9296 52.166 14.4466 52.0919 15.0375 52.0919C15.6284 52.0919 16.1455 52.166 16.6625 52.3883C17.2535 52.7588 17.6966 53.0552 18.066 53.4257ZM17.1796 59.7242C17.4012 59.3537 17.5489 58.9091 17.6966 58.4645C17.7705 58.0199 17.8444 57.4271 17.8444 56.8343C17.8444 56.2415 17.7705 55.6487 17.6966 55.13C17.5489 54.6113 17.4012 54.1667 17.1796 53.8703C16.958 53.4998 16.6625 53.2775 16.2932 53.0552C15.9239 52.8329 15.5546 52.7588 15.1114 52.7588C14.5943 52.7588 14.225 52.907 13.8557 53.1293C13.4864 53.3516 13.1909 53.648 12.9693 54.0185C12.7477 54.389 12.6 54.8336 12.5262 55.2782C12.4523 55.7969 12.3784 56.3156 12.3784 56.8343C12.3784 57.4271 12.4523 57.9458 12.5262 58.4645C12.6 58.9091 12.8216 59.3537 13.0432 59.7242C13.2648 60.0946 13.5603 60.3911 13.8557 60.6133C14.225 60.8356 14.5943 60.9097 15.0375 60.9097C15.4807 60.9097 15.85 60.8356 16.2194 60.6133C16.6625 60.3911 16.958 60.0946 17.1796 59.7242ZM16.2932 50.8322C16.1455 50.9063 15.9978 50.9804 15.85 50.9804C15.7023 50.9804 15.5546 50.9804 15.333 50.9804V51.425H14.8159V50.3135C14.8898 50.3135 15.0375 50.3135 15.1853 50.3135C15.333 50.3135 15.4069 50.3135 15.5546 50.2394C15.6284 50.2394 15.7762 50.1653 15.7762 50.0912C15.85 50.0171 15.85 49.943 15.85 49.8689C15.85 49.7207 15.7762 49.6466 15.7023 49.5725C15.6284 49.4984 15.4807 49.4243 15.333 49.4243C15.1853 49.4243 15.0375 49.3502 14.8159 49.3502C14.5943 49.3502 14.4466 49.3502 14.225 49.3502V48.9056C14.5943 48.9056 14.9637 48.9056 15.2591 48.9797C15.5546 49.0538 15.85 49.0538 16.0716 49.202C16.2932 49.2761 16.4409 49.4243 16.5887 49.5725C16.7364 49.7207 16.7364 49.943 16.7364 50.1653C16.7364 50.3876 16.6625 50.5358 16.5887 50.6099C16.5887 50.6099 16.4409 50.7581 16.2932 50.8322Z" fill="white"/>
<path id="Vector_3" d="M28.6285 61.2061H24.9353V60.7615C25.2308 60.7615 25.5262 60.6874 25.7478 60.6133C25.9694 60.5392 26.0433 60.4651 26.0433 60.391C26.0433 60.3169 26.0433 60.3169 26.0433 60.2428C26.0433 60.1687 26.0433 60.1687 25.9694 60.0946L25.2308 58.094H22.1285C21.9807 58.3904 21.9069 58.6127 21.833 58.835C21.7592 59.0573 21.6853 59.2795 21.6114 59.4277C21.5376 59.5759 21.5376 59.7241 21.4637 59.8723C21.4637 60.0205 21.4637 60.0946 21.4637 60.1687C21.4637 60.3169 21.6114 60.4651 21.833 60.5392C22.1285 60.6133 22.4239 60.6874 22.7194 60.6874V61.132H19.3955V60.7615C19.4694 60.7615 19.6171 60.7615 19.7648 60.6874C19.9126 60.6133 20.0603 60.6133 20.1341 60.5392C20.2819 60.391 20.4296 60.3169 20.5035 60.1687C20.5773 60.0205 20.6512 59.8723 20.7989 59.65C21.2421 58.5386 21.7592 57.2789 22.2762 55.9451C22.7933 54.5372 23.3103 53.3516 23.6796 52.2401H24.1967L27.1512 59.8723C27.2251 60.0205 27.299 60.1687 27.3728 60.2428C27.4467 60.3169 27.5944 60.4651 27.6683 60.5392C27.7421 60.6133 27.8899 60.6133 28.0376 60.6874C28.1853 60.7615 28.3331 60.7615 28.4069 60.7615V61.2061H28.6285ZM25.083 57.6494L23.7535 54.2408L22.4239 57.6494H25.083Z" fill="white"/>
<path id="Vector_4" d="M39.1173 58.6127L38.8957 61.2061H32.0264V60.7615C32.1002 60.7615 32.248 60.7615 32.4696 60.6874C32.6911 60.6874 32.765 60.6133 32.8389 60.6133C32.9866 60.5392 33.0605 60.4651 33.1343 60.391C33.2082 60.3169 33.2082 60.1687 33.2082 60.0206V53.7221C33.2082 53.5739 33.2082 53.4257 33.1343 53.3516C33.0605 53.2775 32.9866 53.1293 32.8389 53.0552C32.765 52.9811 32.6173 52.9811 32.4696 52.907C32.3218 52.8329 32.1741 52.8329 32.0264 52.8329V52.3883H35.7196V52.8329C35.5718 52.8329 35.4241 52.8329 35.2764 52.907C35.1287 52.9811 34.9809 52.9811 34.9071 52.9811C34.7593 53.0552 34.6855 53.1293 34.6116 53.2034C34.5377 53.3516 34.5377 53.4257 34.5377 53.5739V59.5019C34.5377 59.7983 34.5377 60.0205 34.6116 60.1687C34.6116 60.3169 34.6855 60.4651 34.8332 60.5392C34.9071 60.6133 35.0548 60.6874 35.2764 60.6874C35.498 60.6874 35.7196 60.6874 36.0889 60.6874C36.2366 60.6874 36.3843 60.6874 36.5321 60.6874C36.6798 60.6874 36.8275 60.6874 36.9753 60.6133C37.123 60.6133 37.2707 60.5392 37.3446 60.5392C37.4923 60.4651 37.5662 60.4651 37.64 60.391C37.7878 60.1687 38.0094 59.9465 38.2309 59.5019C38.4525 59.1314 38.6003 58.835 38.6741 58.5386H39.1173V58.6127Z" fill="white"/>
<path id="Vector_5" d="M46.7993 53.4257C47.1687 53.7962 47.4641 54.3149 47.6857 54.9077C47.9073 55.5005 47.9812 56.0933 47.9812 56.8342C47.9812 57.5011 47.8334 58.168 47.6119 58.7608C47.3903 59.3536 47.0948 59.7982 46.6516 60.2428C46.2823 60.6133 45.8391 60.9838 45.3221 61.132C44.805 61.3543 44.288 61.4284 43.6971 61.4284C43.1062 61.4284 42.5152 61.2802 41.9982 61.0579C41.4811 60.8356 41.038 60.5392 40.6686 60.0946C40.2993 59.7241 40.0039 59.2054 39.7823 58.6126C39.5607 58.0198 39.4868 57.427 39.4868 56.7601C39.4868 56.0192 39.6345 55.4264 39.8561 54.8336C40.0777 54.2408 40.3732 53.7962 40.8164 53.3516C41.1857 52.9811 41.6289 52.6106 42.1459 52.3883C42.663 52.166 43.18 52.0919 43.7709 52.0919C44.3618 52.0919 44.8789 52.166 45.3959 52.3883C45.9868 52.7588 46.43 53.0552 46.7993 53.4257ZM45.913 59.7241C46.1346 59.3536 46.2823 58.909 46.43 58.4644C46.5039 58.0198 46.5778 57.427 46.5778 56.8342C46.5778 56.2415 46.5039 55.6487 46.43 55.13C46.2823 54.6113 46.1346 54.1667 45.913 53.8703C45.6914 53.4998 45.3959 53.2775 45.0266 53.0552C44.6573 52.8329 44.288 52.7588 43.8448 52.7588C43.3277 52.7588 42.9584 52.907 42.5891 53.1293C42.2198 53.3516 41.9243 53.648 41.7027 54.0185C41.4811 54.389 41.3334 54.8336 41.2596 55.2782C41.1857 55.7969 41.1118 56.3156 41.1118 56.8342C41.1118 57.427 41.1857 57.9457 41.2596 58.4644C41.3334 58.909 41.555 59.3536 41.7766 59.7241C41.9982 60.0946 42.2936 60.391 42.5891 60.6133C42.9584 60.8356 43.3277 60.9097 43.7709 60.9097C44.2141 60.9097 44.5834 60.8356 44.9527 60.6133C45.3959 60.391 45.6914 60.0946 45.913 59.7241ZM45.4698 51.6473L45.3221 51.8696C44.805 51.6473 44.4357 51.425 43.9925 51.2027C43.6232 51.0545 43.3277 50.9063 43.18 50.7581C42.9584 50.684 42.8107 50.5358 42.7368 50.4617C42.663 50.3876 42.5891 50.2394 42.5891 50.0912C42.5891 49.943 42.663 49.7948 42.7368 49.7207C42.8107 49.6466 42.9584 49.5725 43.18 49.5725C43.3277 49.5725 43.4016 49.5725 43.5493 49.6466C43.6232 49.7207 43.7709 49.7948 43.9187 49.943C44.1402 50.1653 44.288 50.3876 44.5834 50.6099C44.7312 50.9063 45.1005 51.2027 45.4698 51.6473Z" fill="white"/>
<path id="Vector_6" d="M58.9865 54.6112C58.9865 55.0558 58.9126 55.5004 58.6911 55.8709C58.5433 56.2414 58.2479 56.5378 57.9524 56.7601C57.657 56.9823 57.2876 57.1306 56.9183 57.2788C56.549 57.3528 56.1058 57.4269 55.7365 57.4269H54.7763V60.0204C54.7763 60.1686 54.7763 60.3168 54.8501 60.3909C54.924 60.465 54.9979 60.6132 55.1456 60.6132C55.2195 60.6132 55.3672 60.6873 55.5149 60.6873C55.7365 60.6873 55.8842 60.7614 56.032 60.7614V61.206H52.2649V60.7614C52.3388 60.7614 52.4865 60.7614 52.7081 60.6873C52.9297 60.6873 53.0035 60.6132 53.0774 60.6132C53.2251 60.5391 53.299 60.465 53.3729 60.3909C53.4467 60.3168 53.4467 60.1686 53.4467 60.0204V53.6479C53.4467 53.4997 53.4467 53.3515 53.3729 53.2774C53.299 53.1292 53.2251 53.0551 53.0774 52.981C52.9297 52.9069 52.7819 52.9069 52.6342 52.8328C52.4865 52.8328 52.3388 52.7587 52.2649 52.7587V52.3141H56.2535C57.0661 52.3141 57.7308 52.5364 58.2479 52.9069C58.7649 53.2774 58.9865 53.9443 58.9865 54.6112ZM57.0661 56.0932C57.2138 55.8709 57.2876 55.7227 57.3615 55.5004C57.4354 55.2781 57.4354 55.1299 57.4354 54.9076C57.4354 54.6853 57.4354 54.463 57.3615 54.1666C57.2876 53.9443 57.2138 53.722 57.0661 53.4997C56.9183 53.2774 56.6967 53.1292 56.4751 53.0551C56.2535 52.981 55.9581 52.9069 55.5888 52.9069H54.7024V56.8341H55.3672C55.8104 56.8341 56.1797 56.7601 56.4751 56.6119C56.6967 56.4637 56.9183 56.3155 57.0661 56.0932Z" fill="white"/>
<path id="Vector_7" d="M68.5152 61.2061H66.1516C65.6345 60.391 65.1175 59.65 64.7482 59.0572C64.305 58.4644 63.8618 57.8716 63.3448 57.2048H62.4584V60.0205C62.4584 60.1687 62.4584 60.3169 62.5323 60.391C62.6061 60.4651 62.68 60.6133 62.8277 60.6133C62.9016 60.6133 63.0493 60.6874 63.197 60.6874C63.4186 60.6874 63.5664 60.7615 63.6402 60.7615V61.2061H59.947V60.7615C60.0209 60.7615 60.1686 60.7615 60.3902 60.6874C60.6118 60.6874 60.6857 60.6133 60.7595 60.6133C60.9073 60.5392 60.9811 60.4651 61.055 60.391C61.1288 60.3169 61.1288 60.1687 61.1288 60.0205V53.648C61.1288 53.4998 61.1288 53.3516 61.055 53.2775C60.9811 53.2034 60.9073 53.0552 60.7595 53.0552C60.6857 52.9811 60.5379 52.9811 60.3902 52.9811C60.2425 52.9811 60.0947 52.907 59.947 52.907V52.4624H64.0095C64.3789 52.4624 64.7482 52.5365 65.0436 52.6106C65.3391 52.6847 65.6345 52.8329 65.93 52.9811C66.1516 53.1293 66.3732 53.3516 66.5209 53.648C66.6686 53.9444 66.7425 54.2408 66.7425 54.6113C66.7425 54.9818 66.6686 55.2782 66.5948 55.5005C66.5209 55.7228 66.3732 56.0192 66.1516 56.1674C65.93 56.3156 65.7084 56.4638 65.4868 56.612C65.1914 56.7602 64.9698 56.8343 64.6004 56.9084C65.0436 57.5012 65.413 57.9458 65.7084 58.3903C66.0039 58.7608 66.3732 59.2795 66.7425 59.7982C66.8902 60.0205 67.1118 60.2428 67.2596 60.3169C67.4073 60.4651 67.555 60.5392 67.7027 60.6133C67.7766 60.6874 67.9243 60.6874 68.0721 60.7615C68.2198 60.7615 68.3675 60.8356 68.4414 60.8356V61.2061H68.5152ZM65.2652 54.6854C65.2652 54.1667 65.1175 53.7221 64.822 53.4257C64.5266 53.1293 64.0834 52.9811 63.4925 52.9811H62.4584V56.7602H63.2709C63.8618 56.7602 64.305 56.612 64.6743 56.2415C65.1175 55.7969 65.2652 55.2782 65.2652 54.6854Z" fill="white"/>
<path id="Vector_8" d="M72.7252 61.2061H68.7366V60.7615C68.8843 60.7615 69.032 60.7615 69.2536 60.6874C69.4752 60.6133 69.6229 60.6133 69.6968 60.6133C69.8445 60.5392 69.9184 60.4651 69.9923 60.391C70.0661 60.3169 70.0661 60.1687 70.0661 60.0206V53.648C70.0661 53.4998 70.0661 53.3516 69.9923 53.2775C69.9184 53.2034 69.8445 53.1293 69.6968 53.0552C69.5491 52.9811 69.4014 52.9811 69.2536 52.907C69.032 52.8329 68.8843 52.8329 68.8104 52.8329V52.3883H72.7991V52.8329C72.6514 52.8329 72.5036 52.8329 72.3559 52.907C72.2082 52.907 71.9866 52.9811 71.9127 52.9811C71.765 53.0552 71.6173 53.1293 71.6173 53.2034C71.6173 53.2775 71.5434 53.4257 71.5434 53.5739V60.0206C71.5434 60.1687 71.5434 60.2428 71.6173 60.391C71.6911 60.4651 71.765 60.6133 71.9127 60.6133C71.9866 60.6133 72.1343 60.6874 72.3559 60.6874C72.5775 60.7615 72.7252 60.7615 72.873 60.7615V61.2061H72.7252Z" fill="white"/>
<path id="Vector_9" d="M79.2991 57.2048C79.5207 57.4271 79.5945 57.6494 79.7423 57.8717C79.8161 58.094 79.89 58.3904 79.89 58.7609C79.89 59.5759 79.5945 60.1687 79.0036 60.6874C78.4127 61.2061 77.7479 61.4284 76.8616 61.4284C76.4922 61.4284 76.0491 61.3543 75.6797 61.2802C75.3104 61.132 74.9411 60.9838 74.6456 60.8356L74.3502 61.2802H73.8331L73.7593 58.2422H74.2763C74.3502 58.6127 74.4979 58.9832 74.6456 59.2795C74.7934 59.5759 74.9411 59.8723 75.1627 60.0946C75.3843 60.3169 75.6059 60.5392 75.9013 60.6874C76.1968 60.8356 76.4923 60.9097 76.9354 60.9097C77.2309 60.9097 77.4525 60.8356 77.6741 60.7615C77.8957 60.6874 78.0434 60.6133 78.1911 60.4651C78.3389 60.3169 78.4127 60.1687 78.4866 59.9464C78.5604 59.7241 78.5604 59.5759 78.5604 59.2795C78.5604 58.9091 78.4866 58.6127 78.265 58.3163C78.0434 58.0199 77.7479 57.7976 77.3786 57.6494C77.0832 57.5753 76.7877 57.4271 76.4184 57.2789C76.0491 57.1307 75.7536 57.0566 75.532 56.9084C75.015 56.6861 74.6456 56.3897 74.3502 56.0192C74.0547 55.6487 73.907 55.2041 73.907 54.6113C73.907 54.2408 73.9809 53.9444 74.1286 53.648C74.2763 53.3516 74.4241 53.1293 74.7195 52.907C74.9411 52.6847 75.2366 52.5365 75.6059 52.3883C75.9013 52.2401 76.2707 52.2401 76.64 52.2401C77.0093 52.2401 77.3786 52.3142 77.7479 52.4624C78.0434 52.6106 78.3389 52.7588 78.6343 52.907L78.8559 52.4624H79.3729L79.4468 55.4264H78.9298C78.8559 55.0559 78.7082 54.7595 78.6343 54.4631C78.4866 54.1667 78.3389 53.8703 78.1911 53.648C78.0434 53.4257 77.8218 53.2034 77.5263 53.0552C77.3048 52.907 76.9354 52.8329 76.5661 52.8329C76.1968 52.8329 75.8275 52.9811 75.532 53.2034C75.2366 53.4257 75.0888 53.7962 75.0888 54.1667C75.0888 54.5372 75.1627 54.8336 75.3843 55.13C75.532 55.3523 75.8275 55.5746 76.1229 55.7228C76.4184 55.871 76.7138 56.0192 77.0093 56.0933C77.3048 56.1674 77.6002 56.3156 77.8218 56.4638C78.0434 56.5379 78.3389 56.6861 78.5604 56.8343C78.9298 56.8343 79.1514 56.9825 79.2991 57.2048Z" fill="white"/>
<path id="Vector_10" d="M88.0894 53.4257C88.4587 53.7962 88.7542 54.3149 88.9758 54.9077C89.1974 55.5005 89.2712 56.0933 89.2712 56.8343C89.2712 57.5012 89.1235 58.1681 88.9019 58.7609C88.6803 59.3537 88.3849 59.7982 87.9417 60.2428C87.5724 60.6133 87.1292 60.9838 86.6121 61.132C86.0951 61.3543 85.578 61.4284 84.9871 61.4284C84.3962 61.4284 83.8053 61.2802 83.2882 61.0579C82.7712 60.8356 82.328 60.5392 81.9587 60.0946C81.5894 59.7241 81.2939 59.2054 81.0723 58.6127C80.8507 58.0199 80.7769 57.4271 80.7769 56.7602C80.7769 56.0192 80.9246 55.4264 81.1462 54.8336C81.3678 54.2408 81.6632 53.7962 82.1064 53.3516C82.4757 52.9811 82.9189 52.6106 83.436 52.3883C83.953 52.166 84.4701 52.0919 85.061 52.0919C85.6519 52.0919 86.1689 52.166 86.686 52.3883C87.2769 52.7588 87.7201 53.0552 88.0894 53.4257ZM87.1292 59.7241C87.3508 59.3536 87.4985 58.9091 87.6462 58.4645C87.7201 58.0199 87.7939 57.4271 87.7939 56.8343C87.7939 56.2415 87.7201 55.6487 87.6462 55.13C87.5724 54.6113 87.3508 54.1667 87.1292 53.8703C86.9076 53.4998 86.6121 53.2775 86.2428 53.0552C85.8735 52.8329 85.5042 52.7588 85.061 52.7588C84.5439 52.7588 84.1746 52.907 83.8053 53.1293C83.436 53.3516 83.1405 53.648 82.9189 54.0185C82.6973 54.389 82.5496 54.8336 82.4757 55.2782C82.4019 55.7969 82.328 56.3156 82.328 56.8343C82.328 57.4271 82.4019 57.9458 82.4757 58.4645C82.5496 58.9091 82.7712 59.3536 82.9928 59.7241C83.2144 60.0946 83.5098 60.391 83.8053 60.6133C84.1746 60.8356 84.5439 60.9097 84.9871 60.9097C85.4303 60.9097 85.7996 60.8356 86.1689 60.6133C86.6121 60.391 86.9076 60.0946 87.1292 59.7241Z" fill="white"/>
<path id="Vector_11" d="M99.4642 52.8329C99.3165 52.8329 99.1688 52.907 98.9472 52.907C98.7256 52.9811 98.504 53.0552 98.4301 53.1293C98.2824 53.2034 98.2085 53.4257 98.1347 53.7221C98.0608 54.0185 98.0608 54.389 98.0608 54.8336V61.2802H97.5438L92.2256 54.0185V58.5386C92.2256 59.0573 92.2256 59.4277 92.2994 59.7241C92.3733 60.0205 92.4471 60.1687 92.5949 60.3169C92.6687 60.391 92.8903 60.4651 93.1858 60.5392C93.4812 60.6133 93.7028 60.6874 93.7767 60.6874V61.132H90.1574V60.7615C90.3051 60.7615 90.4528 60.6874 90.7483 60.6133C91.0437 60.5392 91.1915 60.4651 91.2653 60.391C91.413 60.2428 91.4869 60.0946 91.5608 59.8723C91.6346 59.65 91.6346 59.2054 91.6346 58.6127V54.2408C91.6346 54.0185 91.6346 53.8703 91.5608 53.648C91.4869 53.4257 91.413 53.2775 91.2653 53.2034C91.1176 53.0552 90.896 52.9811 90.6744 52.8329C90.4528 52.7588 90.2312 52.6847 90.0835 52.6847V52.2401H92.5949L97.5438 58.9832V54.7595C97.5438 54.2408 97.5438 53.8703 97.4699 53.5739C97.396 53.2775 97.3222 53.1293 97.1744 53.0552C97.0267 52.9811 96.879 52.907 96.5835 52.8329C96.2881 52.7588 96.1404 52.6847 95.9926 52.6847V52.2401H99.5381V52.8329H99.4642Z" fill="white"/>
</g>
<g id="Group_3">
<g id="Group_4">
<path id="Vector_12" d="M1.52051 66.3192C1.96369 66.2451 2.48074 66.171 3.07165 66.171C4.10575 66.171 4.84439 66.3933 5.28757 66.8379C5.80462 67.2825 6.10008 67.9494 6.10008 68.8386C6.10008 69.7278 5.80462 70.4688 5.28757 70.9875C4.77053 71.5803 3.88416 71.8767 2.85006 71.8767C2.33301 71.8767 1.88983 71.8767 1.52051 71.8026V66.3192ZM2.25915 71.2098C2.40688 71.2098 2.70233 71.2839 2.99779 71.2839C4.54893 71.2839 5.36144 70.3947 5.36144 68.9127C5.36144 67.5789 4.6228 66.7638 3.14552 66.7638C2.7762 66.7638 2.48074 66.7638 2.33301 66.8379V71.2098H2.25915Z" fill="white"/>
<path id="Vector_13" d="M8.46374 66.245V71.8025H7.7251V66.245H8.46374Z" fill="white"/>
<path id="Vector_14" d="M14.0033 66.8378H12.3044V66.245H16.4408V66.8378H14.742V71.8025H14.0033V66.8378Z" fill="white"/>
<path id="Vector_15" d="M19.3218 64.9852L18.2877 65.9485H17.6968L18.4354 64.9852H19.3218ZM18.5093 66.2449V71.8024H17.7706V66.2449H18.5093Z" fill="white"/>
<path id="Vector_16" d="M24.3443 71.5803C24.0488 71.7285 23.5318 71.8767 22.867 71.8767C21.3159 71.8767 20.134 70.9134 20.134 69.0609C20.134 67.2825 21.3159 66.171 23.0147 66.171C23.6795 66.171 24.1227 66.3192 24.3443 66.3933L24.1966 66.9861C23.9011 66.8379 23.5318 66.7638 23.0886 66.7638C21.759 66.7638 20.9465 67.5789 20.9465 69.0609C20.9465 70.3947 21.759 71.2839 23.0886 71.2839C23.5318 71.2839 23.975 71.2098 24.2704 71.0616L24.3443 71.5803Z" fill="white"/>
<path id="Vector_17" d="M26.7082 66.245V68.5421H29.4412V66.245H30.1798V71.8025H29.4412V69.209H26.7821V71.8025H26.0435V66.245H26.7082Z" fill="white"/>
<path id="Vector_18" d="M34.6116 71.8025V66.245H35.4241L37.1968 69.0608C37.64 69.7277 37.9355 70.3205 38.2309 70.8392C38.157 70.0982 38.157 69.4313 38.157 68.5421V66.245H38.8218V71.8025H38.0832L36.3104 68.9867C35.9411 68.3939 35.5718 67.727 35.2763 67.1342C35.3502 67.8011 35.3502 68.5421 35.3502 69.4313V71.8025H34.6116Z" fill="white"/>
<path id="Vector_19" d="M41.4809 66.245V68.5421H44.2139V66.245H44.9525V71.8025H44.2139V69.209H41.5548V71.8025H40.8162V66.245H41.4809Z" fill="white"/>
<path id="Vector_20" d="M47.833 70.024L47.2421 71.8024H46.5034L48.4239 66.2449H49.3103L51.2307 71.8024H50.4921L49.9012 70.024H47.833ZM48.4978 64.9852L49.2364 65.9485H48.6455L47.6114 64.9852H48.4978ZM49.6057 69.5053L49.0887 67.8751C48.9409 67.5046 48.8671 67.2082 48.7932 66.8377C48.7193 67.1341 48.6455 67.5046 48.4978 67.8751L47.9807 69.5053H49.6057Z" fill="white"/>
<path id="Vector_21" d="M56.2536 66.8378H54.5547V66.245H58.6911V66.8378H56.9922V71.8025H56.2536V66.8378Z" fill="white"/>
<path id="Vector_22" d="M60.7593 66.2449V69.5794C60.7593 70.8391 61.2763 71.3578 62.0888 71.3578C62.9013 71.3578 63.4184 70.8391 63.4184 69.5794V66.2449H64.157V69.5053C64.157 71.2096 63.2706 71.9506 62.0888 71.9506C60.9808 71.9506 60.0945 71.2837 60.0945 69.5794V66.319H60.7593V66.2449ZM61.7934 64.9852L62.532 65.9485H61.9411L60.907 64.9852H61.7934Z" fill="white"/>
<path id="Vector_23" d="M69.2538 66.245V68.5421H71.9129V66.245H72.6515V71.8025H71.9129V69.209H69.2538V71.8025H68.5151V66.245H69.2538Z" fill="white"/>
<path id="Vector_24" d="M79.447 68.9125C79.447 70.8391 78.2651 71.8765 76.8617 71.8765C75.3844 71.8765 74.3503 70.765 74.3503 69.0607C74.3503 67.2823 75.4583 66.1708 76.9356 66.1708C78.4867 66.0967 79.447 67.2823 79.447 68.9125ZM75.089 69.0607C75.089 70.2463 75.7538 71.2837 76.8617 71.2837C77.9697 71.2837 78.6345 70.2463 78.6345 68.9866C78.6345 67.8751 78.0435 66.6895 76.8617 66.6895C75.7538 66.6895 75.089 67.801 75.089 69.0607ZM76.714 65.8003C76.8617 65.4298 77.1572 65.3557 77.1572 65.1334C77.1572 64.9852 77.0833 64.9111 76.8617 64.9111C76.714 64.9111 76.5663 65.0593 76.4924 65.2075L76.1969 65.0593C76.3447 64.763 76.5663 64.5406 77.0094 64.5406C77.3788 64.5406 77.6742 64.763 77.6742 65.1334C77.6742 65.578 77.3049 65.6521 77.0833 66.0226L76.714 65.8003Z" fill="white"/>
<path id="Vector_25" d="M82.0322 70.0241L81.4413 71.8025H80.7026L82.6231 66.245H83.5095L85.4299 71.8025H84.6913L84.1004 70.0241H82.0322ZM83.8049 69.5054L83.2879 67.8752C83.1402 67.5047 83.0663 67.2083 82.9924 66.8378C82.9186 67.1342 82.8447 67.5047 82.697 67.8752L82.1799 69.5054H83.8049Z" fill="white"/>
<path id="Vector_26" d="M89.3447 66.245H90.0834V71.2097H92.447V71.8025H89.3447V66.245Z" fill="white"/>
<path id="Vector_27" d="M98.7256 68.9126C98.7256 70.8392 97.5437 71.8766 96.1403 71.8766C94.663 71.8766 93.6289 70.7651 93.6289 69.0608C93.6289 67.2824 94.7369 66.1709 96.2142 66.1709C97.7653 66.0969 98.7256 67.2824 98.7256 68.9126ZM94.4414 69.0608C94.4414 70.2464 95.1062 71.2838 96.2142 71.2838C97.3221 71.2838 97.9869 70.2464 97.9869 68.9867C97.9869 67.8752 97.396 66.6896 96.2142 66.6896C95.0323 66.6896 94.4414 67.8011 94.4414 69.0608ZM95.9187 64.9113L96.6573 65.8746H96.0664L95.0323 64.9113H95.9187Z" fill="white"/>
</g>
<g id="Group_5">
<g id="Group_6">
<path id="Vector_28" fill-rule="evenodd" clip-rule="evenodd" d="M54.2597 0.22229L53.3733 13.3379C55.6631 13.5602 57.9529 14.0789 60.0949 14.7458L62.9018 2.07478L63.3449 2.22297L60.5381 14.894C62.5324 15.5609 64.4529 16.376 66.2995 17.3393L71.8393 5.33515C66.4472 2.59347 60.5381 0.815085 54.2597 0.22229ZM60.6858 5.26105C60.5381 5.40925 60.3904 5.55745 60.1688 5.70565C60.0211 5.77975 59.8733 5.85384 59.7256 5.77975C58.987 5.63155 58.3222 5.48335 57.5835 5.33515C57.2881 5.26105 56.9926 5.18695 56.771 5.11285C56.5494 5.03875 56.4756 5.11285 56.4017 5.33515C56.3279 5.63155 56.254 5.92794 56.1801 6.29844C56.1801 6.44664 56.1801 6.52074 56.254 6.59484C56.4017 6.66894 56.4756 6.66894 56.6233 6.66894C56.9188 6.74304 57.2142 6.81714 57.5097 6.89124C57.5835 6.89124 57.6574 7.03944 57.8051 7.11353C57.8051 7.48403 57.7313 7.78043 57.6574 8.15093C57.1404 8.00273 56.6233 7.85453 56.1063 7.70633C55.9585 8.15093 55.8847 8.59552 55.7369 8.96602C55.8847 9.11422 56.1063 9.18832 56.254 9.18832C56.6972 9.26242 57.1404 9.33652 57.6574 9.41062C58.0267 9.48472 58.396 9.63291 58.7654 9.70701C58.987 9.78111 59.2085 9.85521 59.504 9.92931C59.7256 10.0034 59.7256 10.0034 59.6517 10.2257C59.6517 10.2998 59.6517 10.3739 59.6517 10.448C59.7256 10.6703 59.7256 10.8926 59.7995 11.1149C59.504 11.189 59.2086 11.1149 58.9131 11.0408C58.1745 10.8926 57.5097 10.7444 56.771 10.5221C56.4017 10.448 56.0324 10.2998 55.6631 10.2257C55.4415 10.1516 55.146 10.1516 54.9244 10.0775C54.7767 10.0775 54.7028 10.0034 54.629 10.0034C54.629 9.70701 54.629 9.48472 54.629 9.18832C54.629 9.04012 54.7028 8.96602 54.7767 8.89192C54.8506 8.59552 54.8506 8.37322 54.9244 8.07683C55.146 7.11353 55.3676 6.15024 55.5892 5.11285C55.6631 4.74235 55.7369 4.29776 55.8847 3.92726C55.6631 3.70496 55.7369 3.70496 55.9585 3.70496C56.0324 3.70496 56.1063 3.70496 56.1801 3.77906C56.6972 4.07546 57.2142 4.07546 57.7313 4.22366C58.396 4.37186 59.0608 4.52006 59.7256 4.66825C59.9472 4.74235 60.1688 4.81645 60.3904 4.89055C60.5381 4.96465 60.612 4.96465 60.8336 5.03875C60.7597 5.11285 60.7597 5.18695 60.6858 5.26105ZM68.6631 8.29912C68.3677 8.29912 68.2938 8.44732 68.22 8.66962C68.1461 8.81782 68.0722 8.96602 67.9984 9.11422C67.9245 9.18832 67.9245 9.26242 67.9245 9.33652C67.7029 10.2257 67.3336 11.0408 67.0381 11.93C66.9643 12.1523 66.8165 12.3746 66.7427 12.5969C66.595 12.8933 66.5211 13.2638 66.4472 13.6343C66.4472 13.7084 66.4472 13.7825 66.5211 13.9307C66.3734 13.8566 66.2256 13.8566 66.0779 13.8566C65.9302 13.7825 65.7824 13.7084 65.6347 13.6343C65.3393 13.4861 65.1915 13.2638 65.1915 12.9674C65.1915 12.3746 65.1177 11.7818 65.0438 11.189C65.0438 11.0408 65.0438 10.9667 65.0438 10.8185C65.1177 10.3739 64.9699 9.92931 64.9699 9.41062C64.379 10.448 64.1574 11.5595 63.6404 12.5228C63.1972 12.5969 62.8279 12.3746 62.3847 12.2264C62.1631 12.1523 62.0154 12.0782 61.7199 12.0041C61.9415 11.8559 62.1631 11.7818 62.3108 11.7077C62.5324 11.6336 62.754 11.5595 62.8279 11.2631C62.9017 11.0408 63.0495 10.8185 63.1233 10.5962C63.4188 9.85521 63.7143 9.04012 64.0097 8.29912C64.1574 7.92863 64.3052 7.63223 64.5268 7.33583C64.6006 7.11353 64.6006 6.96534 64.5268 6.81714C64.4529 6.74304 64.379 6.66894 64.3052 6.52074C64.2313 6.37254 64.2313 6.29844 64.3052 6.15024C64.4529 6.22434 64.6006 6.29844 64.7484 6.37254C64.8961 6.52074 65.1177 6.52074 65.2654 6.59484C65.5609 6.66894 65.7086 6.89124 65.7824 7.18763C65.9302 7.63223 65.8563 8.07683 65.8563 8.59552C65.8563 9.26242 65.8563 9.92931 65.8563 10.5221C65.8563 10.8185 65.8563 11.189 65.9302 11.4854H66.004C66.1518 11.0408 66.2995 10.5962 66.4472 10.2257C66.595 9.78111 66.8165 9.33652 66.9643 8.96602C67.112 8.52142 67.2597 8.07683 67.4075 7.70633C67.4813 7.70633 67.4813 7.70633 67.5552 7.70633C67.8506 7.85453 68.22 7.92863 68.5154 8.07683C68.5893 8.07683 68.6631 8.15093 68.6631 8.15093C68.737 8.22503 68.737 8.29912 68.737 8.37322C68.8109 8.22503 68.737 8.29912 68.6631 8.29912Z" fill="white"/>
</g>
<g id="Group_7">
<path id="Vector_29" fill-rule="evenodd" clip-rule="evenodd" d="M35.1289 2.22309L39.2653 14.7459C41.1858 14.1531 43.254 13.7085 45.3221 13.4121L43.8449 0.370605C40.8903 0.741102 37.9357 1.3339 35.1289 2.22309Z" fill="white"/>
</g>
<g id="Group_8">
<path id="Vector_30" fill-rule="evenodd" clip-rule="evenodd" d="M26.5605 5.92799L33.1345 17.4134C34.9811 16.4501 36.9015 15.5609 38.8958 14.894L34.6856 2.37122C31.8788 3.33451 29.1458 4.5201 26.5605 5.92799ZM35.7936 11.0408C35.8674 11.3372 36.0151 11.5595 36.089 11.8559C36.1629 12.0782 36.2367 12.1523 36.4583 12.2264C36.6061 12.3005 36.6799 12.3005 36.8277 12.3746C36.3845 12.671 35.9413 12.8192 35.572 13.0415C35.4981 13.0415 35.3504 12.9674 35.2765 12.8933C34.7595 12.3746 34.2424 11.8559 33.7254 11.4113C33.0606 10.8926 32.5435 10.2258 31.9526 9.63296C31.8788 9.55886 31.731 9.48476 31.6572 9.33656C31.6572 9.63296 31.731 9.85526 31.8788 10.0776C32.2481 10.5962 32.6174 11.1149 32.9129 11.6336C33.1345 12.0782 33.4299 12.4487 33.6515 12.8933C33.7254 13.0415 33.7992 13.2638 33.947 13.4861C33.8731 13.7084 33.7254 13.7825 33.5776 13.8566C33.356 14.0048 33.1344 14.0789 32.839 14.2271C32.7651 14.3012 32.6174 14.3012 32.4697 14.3012C32.4697 14.0789 32.4697 13.9307 32.5435 13.7825C32.6174 13.5602 32.6174 13.412 32.4697 13.1897C32.2481 12.7451 32.0265 12.3005 31.731 11.7818C31.3617 11.0408 31.0663 10.374 30.6969 9.63296C30.5492 9.26246 30.3276 8.89196 30.1799 8.52147C30.106 8.37327 30.0322 8.37327 29.8844 8.29917C29.7367 8.29917 29.589 8.22507 29.4412 8.15097C29.589 8.07687 29.6628 8.00277 29.7367 7.92867C30.0322 7.78047 30.3276 7.70637 30.6231 7.55817C30.7708 7.48407 30.9185 7.48407 31.0663 7.63227C31.3617 7.92867 31.5833 8.15097 31.8788 8.44737C32.3219 8.89196 32.839 9.26246 33.2822 9.70706C33.5776 9.92935 33.7992 10.2258 34.0947 10.4481C34.2424 10.5222 34.3163 10.6703 34.5379 10.6703C34.3901 10.2999 34.2424 9.92935 34.0208 9.63296C33.7254 8.96606 33.4299 8.37327 33.1345 7.70637C33.0606 7.48407 32.9129 7.26178 32.7651 7.03948C32.6913 6.89128 32.6913 6.74308 32.9129 6.74308C33.2822 6.59488 33.7254 6.52078 34.0947 6.44668C34.1685 6.44668 34.2424 6.44668 34.3901 6.44668C34.3163 6.66898 34.2424 6.81718 34.1685 6.96538C34.0947 7.11358 34.0947 7.18768 34.1685 7.33588C34.6856 8.37327 35.1288 9.48476 35.6458 10.5222C35.6458 10.7444 35.7197 10.8926 35.7936 11.0408Z" fill="white"/>
</g>
<g id="Group_9">
<path id="Vector_31" fill-rule="evenodd" clip-rule="evenodd" d="M53.8162 0.148199C52.4128 0.0740994 51.0832 0 49.6798 0C47.907 0 46.0604 0.0740994 44.3616 0.296398L45.9127 13.3379C47.1684 13.1897 48.4241 13.1156 49.7536 13.1156C50.7877 13.1156 51.8957 13.1897 52.9298 13.2638V13.1156H52.7821L53.8162 0.148199ZM52.3389 3.03808C52.1173 3.18627 51.9696 3.33447 51.8957 3.55677C51.8218 3.70497 51.6741 3.85317 51.6002 3.92727C51.3048 3.70497 51.0832 3.55677 50.7877 3.40857C50.3446 3.11217 49.9014 2.96398 49.3843 2.96398C48.7195 2.96398 48.2025 3.33447 47.8332 3.92727C47.6855 4.14957 47.6116 4.29776 47.5377 4.52006C47.39 4.81646 47.39 5.18696 47.39 5.55746C47.39 6.00205 47.39 6.44665 47.6116 6.81714C47.7593 7.18764 47.9809 7.48404 48.2025 7.78044C48.6457 8.37323 49.2366 8.44733 49.9014 8.44733C50.1968 8.44733 50.5662 8.29913 50.7877 8.07683C51.0832 7.85454 51.3048 7.55814 51.5264 7.18764C51.5264 7.11354 51.6002 7.11354 51.6741 7.03944C51.9696 7.33584 51.9696 7.70634 51.8957 8.07683C51.8957 8.37323 51.6741 8.66963 51.4525 8.81783C50.64 9.48472 49.8275 9.55882 48.8673 9.33652C48.1286 9.18833 47.5377 8.66963 47.0207 8.15093C46.5036 7.63224 46.3559 6.96534 46.282 6.22435C46.2082 5.55745 46.282 4.81646 46.5036 4.14957C46.6514 3.70497 46.8729 3.33447 47.1684 3.03808C47.39 2.81578 47.6116 2.66758 47.8332 2.51938C48.498 2.14888 49.1627 2.00068 49.9014 2.07478C50.2707 2.14888 50.64 2.22298 51.0093 2.37118C51.3048 2.51938 51.6741 2.66758 52.0434 2.66758C52.1912 2.66758 52.3389 2.74168 52.4866 2.74168C52.4866 2.96398 52.4127 3.03808 52.3389 3.03808Z" fill="white"/>
</g>
<g id="Group_10">
<path id="Vector_32" fill-rule="evenodd" clip-rule="evenodd" d="M9.498 33.7893C9.498 33.7893 9.57187 33.7893 9.498 33.7893C9.86732 34.0116 10.1628 34.3821 10.606 34.3821C10.7537 34.4562 10.6798 34.6785 10.8276 34.6785C11.0491 34.1598 11.4185 33.7152 11.4923 33.0483C10.6798 33.1224 9.86732 32.9742 8.98096 33.1224C8.98096 33.1965 8.98096 33.2706 8.98096 33.3447C9.20255 33.4188 9.42414 33.4929 9.498 33.7893Z" fill="white"/>
</g>
<g id="Group_11">
<path id="Vector_33" fill-rule="evenodd" clip-rule="evenodd" d="M6.39551 26.6757L18.4353 32.6037C19.3956 30.603 20.5774 28.6764 21.9808 26.9721L11.4921 18.7471C9.57166 21.1924 7.87279 23.8599 6.39551 26.6757ZM12.8955 23.7858C12.9694 23.934 12.9694 24.0822 12.8955 24.2304C12.8217 24.5268 12.8955 24.675 13.1171 24.8232C13.3387 24.9714 13.5603 25.1196 13.7819 25.1937C14.7421 25.6383 15.5546 26.3052 16.441 26.8239C16.7365 27.0462 17.1058 27.1944 17.4012 27.4167C17.549 27.5649 17.7706 27.5649 17.9183 27.4908C18.066 27.4167 18.1399 27.3426 18.2876 27.3426C18.3615 27.3426 18.4353 27.3426 18.5092 27.4167C18.5092 27.4908 18.5092 27.5649 18.5092 27.639L18.4353 27.7131C18.1399 28.0836 17.9183 28.5282 17.6228 28.8987C17.4751 29.121 17.4012 29.2692 17.2535 29.4915C17.1797 29.5656 17.1797 29.6397 17.1058 29.7138C17.0319 29.4915 16.9581 29.2692 16.9581 29.121C16.8842 28.9728 16.8842 28.7505 16.8103 28.6023C16.7365 28.4541 16.5887 28.38 16.441 28.3059C15.7024 27.8613 14.9637 27.4167 14.2251 26.898C13.6342 26.5275 13.0433 26.0829 12.3785 25.6383C12.1569 25.4901 12.1569 25.4901 11.9353 25.6383C11.7876 25.7865 11.566 25.7865 11.3444 25.7865C11.4921 25.4901 12.6001 24.0081 12.8955 23.7858Z" fill="white"/>
</g>
<g id="Group_12">
<path id="Vector_34" fill-rule="evenodd" clip-rule="evenodd" d="M11.7878 18.3026L22.2765 26.6017C23.6799 24.8234 25.2311 23.1932 26.93 21.7112L17.9186 11.9301C15.7026 13.8566 13.6344 16.0055 11.7878 18.3026ZM19.6174 16.5983C19.6913 16.5242 19.6913 16.5242 19.7652 16.4501C19.9129 16.5983 19.9129 16.8947 20.0606 16.9688C20.2083 17.0429 20.3561 17.2652 20.5777 17.4134C20.5038 17.4134 20.4299 17.4875 20.2822 17.4875C19.3958 17.7098 18.7311 18.1544 18.2879 18.9695C18.214 19.1177 18.1401 19.4141 18.1401 19.5623C18.1401 19.8587 18.4356 20.1551 18.7311 20.0069C19.3958 19.7846 19.9867 19.4882 20.5777 19.1918C21.1686 18.8954 21.7595 18.7472 22.4243 18.7472C22.572 18.7472 22.7197 18.8213 22.7936 18.8954C23.3106 19.4141 23.5322 20.0069 23.3845 20.7479C23.3106 21.1925 23.089 21.6371 22.7197 21.9335C22.2027 22.3781 21.6856 22.8227 21.0208 23.045C20.8731 23.1191 20.8731 23.1932 20.7992 23.2673C20.7254 23.4155 20.6515 23.6378 20.5777 23.786H20.5038C20.2822 23.1191 20.0606 22.5263 20.0606 21.7853C20.2083 21.8594 20.3561 21.8594 20.5038 21.9335C20.5777 21.9335 20.7254 22.0076 20.7992 22.0076C21.3163 21.7853 21.8333 21.4889 22.1288 20.9702C22.2765 20.7479 22.3504 20.4515 22.2027 20.1551C22.0549 19.8587 21.8333 19.7846 21.464 19.9328C21.1686 20.081 20.8731 20.2292 20.6515 20.3033C19.9867 20.5997 19.3958 20.822 18.7311 21.0443C18.2879 21.1925 17.8447 21.1184 17.4754 20.7479C17.1799 20.5256 17.1061 20.2292 16.9583 19.9328C16.8845 19.7846 16.8845 19.5623 16.9583 19.4141C17.1061 18.8954 17.3276 18.3767 17.697 17.9321C17.9186 17.7098 18.1401 17.4875 18.3617 17.3393C18.8788 17.2652 19.2481 16.8947 19.6174 16.5983Z" fill="white"/>
</g>
<g id="Group_13">
<path id="Vector_35" fill-rule="evenodd" clip-rule="evenodd" d="M1.15112 46.8309H14.816C14.8898 44.1634 15.2592 41.8663 15.9239 39.421L2.6284 36.9016C1.74204 40.3102 1.22499 43.2001 1.15112 46.8309ZM3.6625 43.9411C3.73636 43.7929 3.81023 43.5706 4.03182 43.4965C4.25341 43.4224 4.40114 43.2742 4.54887 43.2001C4.84432 43.0519 5.13978 42.9037 5.43524 42.8296C5.73069 42.7555 5.95228 42.7555 6.17388 42.5332C6.24774 42.4591 6.39547 42.385 6.61706 42.4591C6.76479 42.4591 6.91252 42.3109 7.06025 42.2368C6.83865 42.0145 6.61706 41.7922 6.46933 41.5699C5.95228 41.0512 5.36137 40.5325 4.84432 39.9397C4.77046 39.8656 4.6966 39.7915 4.6966 39.7915C4.77046 39.4951 4.6966 39.1246 4.99205 38.8282C5.65683 38.9023 6.32161 38.9764 6.98638 39.1246C7.65116 39.2728 8.31593 39.3469 8.98071 39.421C9.42389 39.4951 9.79321 39.4951 10.2364 39.5692C10.6796 39.6433 11.1228 39.7174 11.4921 39.8656C11.566 39.8656 11.7137 39.8656 11.7875 39.9397C12.1569 40.0138 12.5262 40.0879 12.8955 40.162C13.0432 40.2361 13.1171 40.3102 13.1171 40.5325C13.1171 40.903 13.0432 41.3476 13.0432 41.7181C13.0432 41.8663 12.9694 41.9404 12.8955 42.1627C12.7478 42.0145 12.6739 41.7922 12.6 41.644C12.6 41.5699 12.5262 41.5699 12.5262 41.4958C12.4523 41.2735 12.2307 41.2735 12.0091 41.1994C11.1228 41.0512 10.2364 40.903 9.35003 40.7548C8.98071 40.6807 8.53753 40.6066 8.16821 40.5325C7.79889 40.4584 7.42957 40.3843 6.98638 40.3843C6.83865 40.3843 6.61706 40.3102 6.39547 40.3102C6.5432 40.5325 6.69093 40.6807 6.91252 40.7548C7.13411 40.8289 7.3557 40.9771 7.50343 41.2735C7.79889 41.2735 8.02048 41.4217 8.16821 41.644C8.3898 41.8663 8.68525 42.0886 8.98071 42.2368C9.2023 42.385 9.27617 42.5332 9.2023 42.8296C8.83298 42.9778 8.46366 43.0519 8.16821 43.2001C7.42956 43.4965 6.61706 43.7929 5.87842 44.0152C5.87842 44.0152 5.87842 44.0152 5.80456 44.0893C5.95228 44.2375 6.10001 44.2375 6.24774 44.2375C6.46933 44.2375 6.69093 44.2375 6.91252 44.2375C8.02048 44.2375 9.05457 44.3116 10.1625 44.3116C10.8273 44.3116 11.4921 44.3857 12.1569 44.3857C12.3785 44.3857 12.4523 44.5338 12.6739 44.6079C12.4523 45.2748 12.5262 45.9417 12.3046 46.6086C12.1569 46.3863 12.083 46.2381 12.0091 46.0899C11.8614 45.9417 11.7875 45.7935 11.566 45.7935C10.6796 45.5712 9.79321 45.5712 8.83298 45.4971C8.24207 45.423 7.65116 45.3489 7.06025 45.2748C6.46933 45.2007 5.95228 45.2007 5.36137 45.1266C4.77046 45.0525 4.25341 44.9784 3.6625 44.9043C3.6625 44.3856 3.58864 44.1634 3.6625 43.9411Z" fill="white"/>
</g>
<g id="Group_14">
<path id="Vector_36" fill-rule="evenodd" clip-rule="evenodd" d="M18.2876 11.6336L27.299 21.4147C28.9979 20.0069 30.7706 18.7472 32.6911 17.6357L26.1172 6.15027C23.3104 7.70636 20.7251 9.55884 18.2876 11.6336ZM27.7422 11.93C28.2592 12.3005 28.5547 12.8192 28.8502 13.3379C29.1456 13.8566 29.1456 14.4494 29.0717 15.1163C28.9979 15.4868 28.9979 15.7832 28.7763 16.0796C28.3331 16.7465 27.7422 17.117 27.0774 17.2652C26.7081 17.3393 26.2649 17.4875 25.8217 17.3393C25.6001 17.2652 25.3785 17.2652 25.157 17.117C24.6399 16.8206 24.1229 16.5242 23.7535 15.9314C23.5319 15.5609 23.2365 15.1904 23.0888 14.7458C23.0149 14.5235 23.0149 14.3753 22.941 14.153C22.8672 13.4861 22.8672 12.8933 23.1626 12.3005C23.3104 12.0041 23.5319 11.7818 23.7535 11.5595C23.8274 11.4854 23.9013 11.4113 23.9751 11.4113C24.1229 11.3372 24.2706 11.2631 24.4183 11.189C24.7876 11.0408 25.0831 10.8185 25.3047 10.9667C26.2649 10.9667 26.9297 11.189 27.5206 11.7818C27.6683 11.8559 27.7422 11.93 27.7422 11.93Z" fill="white"/>
</g>
<g id="Group_15">
<path id="Vector_37" fill-rule="evenodd" clip-rule="evenodd" d="M2.77612 36.3828L16.0716 38.9022C16.5887 36.9015 17.3273 34.9008 18.2137 33.0483L6.17387 27.1204C4.77045 30.0843 3.58863 33.1965 2.77612 36.3828ZM7.50342 33.567C7.65115 33.2706 7.72501 32.9742 7.87274 32.6037C7.9466 32.3814 8.02047 32.1591 8.09433 31.9368C8.1682 31.7145 8.24206 31.6404 8.46365 31.7145C8.83297 31.8627 9.27616 31.7886 9.64548 31.7886C10.0148 31.7886 10.3841 31.7886 10.7534 31.7886C11.1966 31.7886 11.5659 31.8627 12.0091 31.7886C12.5262 31.7145 13.0432 31.8627 13.6341 31.9368C13.9296 31.9368 14.225 32.0109 14.4466 32.085C14.5944 32.085 14.7421 32.1591 14.8898 32.1591C15.1114 32.2332 15.2591 32.3073 15.4069 32.1591C15.6285 32.2332 15.5546 32.3814 15.5546 32.5296C15.333 33.0483 15.1114 33.4929 14.9637 34.0116C14.9637 34.0857 14.8898 34.0857 14.816 34.1598C14.6682 34.0857 14.6682 33.8634 14.5944 33.7152C14.5205 33.4188 14.2989 33.1965 14.0035 33.1224C13.708 33.1224 13.3387 33.1224 13.0432 33.0483C12.8955 33.0483 12.8216 33.1224 12.7478 33.2706C12.6739 33.4929 12.6 33.7152 12.5262 33.8634C12.3784 34.2339 12.2307 34.6044 12.083 34.9749C12.0091 35.049 12.0091 35.1972 12.0091 35.2713C12.3784 35.4936 12.7478 35.7159 13.0432 36.0123C13.1171 36.0864 13.2648 36.1605 13.4125 36.1605C13.7819 36.3087 13.7819 36.3828 13.708 36.7533C13.6341 37.1238 13.4864 37.5684 13.4125 37.9389C13.4125 38.013 13.3387 38.1612 13.2648 38.0871C13.191 38.0871 13.1171 38.013 13.1171 37.9389C12.9694 37.7166 12.8955 37.5684 12.7478 37.3461C12.5262 37.0497 12.3046 36.8274 12.0091 36.6792C11.7137 36.4569 11.3443 36.3087 11.0489 36.0864C10.975 36.0123 10.8273 35.9382 10.7534 35.8641C9.94093 35.2713 9.12843 34.7526 8.38979 34.1598C8.1682 34.0116 7.9466 33.8634 7.79888 33.7893C7.42956 33.7893 7.42956 33.7152 7.50342 33.567Z" fill="white"/>
</g>
<g id="Group_16">
<path id="Vector_38" fill-rule="evenodd" clip-rule="evenodd" d="M24.1227 14.2271C24.2704 14.7458 24.4181 15.1904 24.7875 15.5609C25.3045 16.0796 25.8216 16.376 26.5602 16.3019C27.225 16.2278 27.742 15.8573 28.0375 15.1904C28.2591 14.8199 28.2591 14.3753 28.0375 13.9307C27.8159 13.5602 27.6682 13.1897 27.4466 12.8933C27.0034 12.3746 26.5602 12.0782 25.9693 12.0782C24.6397 12.0041 23.9011 13.2638 24.1227 14.2271Z" fill="white"/>
</g>
<g id="Group_17">
<path id="Vector_39" fill-rule="evenodd" clip-rule="evenodd" d="M84.1005 26.9721C84.5436 26.3793 85.2084 25.9347 85.43 25.0455C84.6914 25.1196 84.0266 25.2678 83.3618 25.416C83.5095 25.9347 83.8789 26.3793 84.1005 26.9721Z" fill="white"/>
</g>
<g id="Group_18">
<path id="Vector_40" fill-rule="evenodd" clip-rule="evenodd" d="M87.2766 17.932L77.3049 26.7498C78.5606 28.4541 79.7424 30.2325 80.7027 32.085L92.7425 26.2311C91.1914 23.2672 89.3448 20.5255 87.2766 17.932ZM86.3902 26.157C86.0209 26.5275 85.7254 26.898 85.3561 27.2685C84.8391 27.7872 84.322 28.3059 83.805 28.8246C83.4356 29.1951 83.0663 29.6397 82.697 30.0102C82.6231 30.0843 82.5493 30.2325 82.4754 30.3807C82.4016 30.3066 82.4015 30.2325 82.3277 30.1584C82.18 29.862 82.1061 29.5656 81.8845 29.3433C81.8106 29.2692 81.8106 29.1951 81.7368 29.0469C82.4016 28.8987 82.697 28.38 83.1402 27.9354C82.8447 27.2685 82.4754 26.5275 82.18 25.8606C81.8106 25.9347 81.4413 26.0829 81.072 26.157C80.7027 26.2311 80.4072 26.3793 80.0379 26.5275C79.8902 26.0088 79.5947 25.7124 79.2993 25.416C79.2993 25.1937 79.5947 25.416 79.5209 25.1937C79.6686 25.1937 79.7424 25.1937 79.8902 25.1197C80.4072 24.9715 80.9981 24.8233 81.5152 24.6751C82.3277 24.4528 83.1402 24.1564 83.9527 23.86C84.1743 23.7859 84.3959 23.7118 84.6175 23.6377C84.7652 23.5636 84.9129 23.5636 85.0607 23.5636C85.2084 23.5636 85.3561 23.4895 85.5038 23.4895C85.6516 23.4895 85.7254 23.4154 85.8732 23.4154C86.0209 23.4154 86.0948 23.4895 86.1686 23.6377C86.3163 24.1564 86.6118 24.5269 86.9073 24.8973C87.055 25.0455 87.1289 25.1937 87.2766 25.416C86.9073 25.7124 86.6118 25.8606 86.3902 26.157Z" fill="white"/>
</g>
<g id="Group_19">
<path id="Vector_41" fill-rule="evenodd" clip-rule="evenodd" d="M72.2822 5.63171L66.7424 17.6358C68.6629 18.6732 70.4356 19.9329 72.0606 21.3408L80.4073 11.041C77.822 8.96619 75.1629 7.1137 72.2822 5.63171ZM75.1629 14.0049C75.1629 13.9308 75.1629 13.9308 75.1629 14.0049C75.1629 13.6344 75.0891 13.5603 74.8675 13.4122C74.7197 13.3381 74.4981 13.1899 74.3504 13.0417C74.2766 12.9676 74.2027 12.9676 74.1288 12.8935C73.9811 12.8194 73.9072 12.8935 73.8334 12.9676C73.6118 13.3381 73.3902 13.7085 73.0947 14.079C72.6515 14.6718 72.2084 15.2646 71.7652 15.8574C71.5436 16.1538 71.4697 16.4502 71.4697 16.8207C71.4697 16.9689 71.4697 17.1912 71.4697 17.4135C71.322 17.3394 71.2481 17.3394 71.1004 17.2653C70.8049 17.043 70.5095 16.8207 70.214 16.5984C70.0663 16.5243 69.8447 16.4502 69.697 16.302C69.5493 16.2279 69.4015 16.0797 69.2538 16.0056C69.3277 15.7833 69.4754 15.7833 69.5493 15.7833C70.214 15.7092 70.5834 15.3387 70.9527 14.82C71.5436 14.0049 72.1345 13.1899 72.7254 12.3748C72.7993 12.2266 72.947 12.0784 73.0209 11.9302C72.8731 11.8561 72.7254 11.782 72.6515 11.6338C72.5038 11.4856 72.2822 11.4115 72.1345 11.2633C71.9868 11.1892 71.839 11.1892 71.6913 11.3374C71.6174 11.4115 71.5436 11.4856 71.4697 11.5597C71.322 11.2633 71.3959 9.92948 71.5436 9.41078C71.6913 9.48488 71.839 9.55898 71.9868 9.63308C72.3561 9.85538 72.7254 10.1518 73.0947 10.3741C73.5379 10.6705 74.055 11.041 74.4981 11.4115C74.7936 11.6338 75.1629 11.8561 75.4584 12.0784C75.7538 12.3007 76.0493 12.523 76.3447 12.7453C76.4925 12.8935 76.7141 12.9676 76.8618 13.1158V13.1899C76.3447 13.5603 75.7538 13.7826 75.1629 14.0049Z" fill="white"/>
</g>
<g id="Group_20">
<path id="Vector_42" fill-rule="evenodd" clip-rule="evenodd" d="M80.7027 11.3373L72.4299 21.6371C74.1288 23.045 75.6061 24.6752 77.0095 26.3795L86.9811 17.5616C85.0607 15.2645 82.9925 13.1898 80.7027 11.3373ZM81.7368 20.3033C81.1459 20.4515 80.6288 20.3774 80.0379 20.1551C79.5947 19.9328 79.6686 20.0069 79.3731 20.3033C78.8561 20.9702 78.5606 21.7112 78.1175 22.3781C77.9697 22.6745 77.8959 22.9709 77.8959 23.3414C77.3788 23.045 77.0834 22.6745 76.714 22.2299C77.305 21.2666 77.8959 20.3033 78.4868 19.34C78.1913 19.1177 77.8959 18.8954 77.6004 18.7472C77.4527 18.6731 77.3788 18.6731 77.305 18.8213C77.0095 19.1918 76.714 19.4882 76.4186 19.8587C76.1231 20.2292 75.7538 20.5997 75.4584 20.9702C75.3845 20.8961 75.3106 20.822 75.2368 20.7479C75.089 20.5256 74.9413 20.3774 74.7197 20.2292C74.572 20.081 74.572 19.8587 74.7197 19.7105C74.7936 19.6364 74.7936 19.6364 74.8674 19.5623C75.2368 19.34 75.4584 19.0436 75.7538 18.6731C76.1231 18.2285 76.4925 17.858 76.9356 17.4875C77.2311 17.2652 77.4527 16.9688 77.6743 16.7465C77.8959 16.5242 78.0436 16.3019 78.2652 16.0796C78.5606 15.8573 78.8561 15.5609 79.0777 15.3386C79.5947 15.7832 80.0379 16.1537 80.4811 16.6724C80.9243 17.1911 81.3675 17.6357 81.8107 18.1544C82.1061 18.4508 82.2538 18.8213 82.3277 19.1918C82.4754 19.7105 82.18 20.2292 81.7368 20.3033Z" fill="white"/>
</g>
<g id="Group_21">
<path id="Vector_43" fill-rule="evenodd" clip-rule="evenodd" d="M83.6573 38.9764L96.5096 35.8642C95.6233 32.678 94.4414 29.5658 92.9641 26.6759L80.9243 32.5298C81.9584 34.6045 82.7709 36.8275 83.4357 39.1246L83.7312 39.0505L83.6573 38.9764ZM83.9527 32.3075C84.0266 32.3075 84.0266 32.2334 84.0266 32.2334C84.3959 32.0852 84.7652 31.937 85.0607 31.7888C85.3562 31.6406 85.6516 31.5665 85.9471 31.4924C86.2425 31.4183 86.538 31.2701 86.8334 31.1219C87.055 31.0478 87.2766 30.8996 87.4982 30.8255C87.6459 30.7514 87.7937 30.7514 87.7937 30.5291C87.7937 30.455 87.9414 30.3809 88.0153 30.3809C88.3846 30.2327 88.7539 30.1586 89.1971 30.0104C89.3448 29.9363 89.4925 29.8622 89.6403 29.8622C89.9357 29.714 90.0835 29.7881 90.2312 30.0845C90.4528 30.5291 90.6005 30.8996 90.8221 31.4183C90.6744 31.3442 90.6005 31.3442 90.5266 31.2701C90.3789 31.196 90.1573 31.1219 90.0096 31.0478C89.9357 31.0478 89.9357 31.0478 89.8619 31.0478C89.1971 31.3442 88.5323 31.5665 87.9414 31.8629C87.4982 32.0852 87.055 32.3075 86.6118 32.5298C86.4641 32.6039 86.3164 32.6039 86.1687 32.678C85.9471 32.7521 85.6516 32.8262 85.43 33.0485C85.5039 33.1967 85.5039 33.3449 85.5778 33.5671C85.7255 33.9376 85.7993 34.234 85.9471 34.6045C86.0209 34.8268 86.1687 35.1232 86.2425 35.3455C86.3164 35.6419 86.3903 35.8642 86.538 36.1606C86.6118 36.3829 86.538 36.457 86.3164 36.5311C86.1687 36.5311 86.0948 36.6052 86.0209 36.7534C85.9471 36.9757 85.8732 37.1239 85.7255 37.3462C85.5777 37.2721 85.5039 37.198 85.43 37.1239C85.43 36.9757 85.43 36.8275 85.3562 36.7534C85.0607 35.8642 84.6914 34.975 84.3959 34.0858C84.2482 33.6412 84.1005 33.1226 83.9527 32.678C83.9527 32.6039 83.8789 32.4557 83.8789 32.3816C83.805 32.3075 83.8789 32.3075 83.9527 32.3075Z" fill="white"/>
</g>
<g id="Group_22">
<path id="Vector_44" fill-rule="evenodd" clip-rule="evenodd" d="M96.5835 36.3828L83.5095 39.6432C84.0266 41.8662 84.4698 44.5337 84.6175 46.9049H98.0607C97.913 43.4223 97.4698 39.6432 96.5835 36.3828ZM93.1857 44.5337C92.8903 44.3114 92.5209 44.1632 92.2255 44.2373C92.1516 43.5705 92.0039 42.9777 91.93 42.3108C91.8562 41.9403 91.8562 41.6439 91.8562 41.2734V41.1993C91.7823 40.6065 91.7823 40.6065 91.2652 40.6806C91.1175 40.6806 90.8959 40.6806 90.7482 40.6806C90.6005 40.6806 90.5266 40.7547 90.3789 40.7547C90.3789 40.977 90.4527 41.1993 90.4527 41.4216C90.4527 41.718 90.4527 42.0885 90.4527 42.3849C90.4527 42.5331 90.305 42.6072 90.2312 42.6072C89.9357 42.459 89.6402 42.6072 89.4186 42.7554H89.3448C89.4925 42.1626 89.2709 41.5698 89.2709 40.977C89.2709 40.8288 89.1971 40.7547 89.0493 40.7547C88.68 40.6065 88.2368 40.6806 87.8675 40.7547C87.7198 40.7547 87.6459 40.9029 87.7198 41.1252C87.7198 41.2734 87.7936 41.3475 87.8675 41.4957C88.0152 42.0885 88.0891 42.6072 88.2368 43.2C88.3107 43.4223 88.3107 43.6446 88.3107 43.9409C88.3107 44.1632 88.3107 44.3114 88.3107 44.5337C87.8675 44.8301 87.4243 45.1265 86.9811 45.497C86.8334 44.6078 86.6857 43.7928 86.538 42.9036C86.3902 42.0885 86.2425 41.2734 86.1686 40.3842C86.0948 40.1619 86.2425 39.9396 86.538 39.8655C86.7595 39.7914 87.055 39.7173 87.2766 39.7173C87.7936 39.7173 88.3107 39.5691 88.8277 39.5691C89.3448 39.5691 89.8618 39.495 90.3789 39.495C90.5266 39.495 90.7482 39.4209 90.8959 39.3468C90.9698 39.3468 91.0437 39.2727 91.1914 39.3468C91.2652 39.4209 91.413 39.3468 91.4868 39.3468C91.6346 39.3468 91.7084 39.2727 91.8562 39.2727C92.2255 39.2727 92.5948 39.1986 92.9641 39.1245C93.2596 39.2727 93.1857 39.6432 93.2596 39.8655C93.2596 39.9396 93.3334 40.0878 93.3334 40.1619C93.3334 40.3101 93.3334 40.3842 93.4073 40.4583V40.5324C93.4073 40.6065 93.3334 40.6065 93.3334 40.6065C93.555 40.8288 93.3334 41.1993 93.4812 41.4216C93.4812 41.4957 93.4812 41.5698 93.4812 41.6439C93.4073 41.8662 93.4812 42.0885 93.555 42.3108C93.555 42.3849 93.6289 42.5331 93.555 42.6072C93.7766 42.7554 93.555 43.0518 93.7028 43.2C93.7028 43.2 93.7028 43.2741 93.7028 43.3482C93.7028 43.4964 93.7028 43.7187 93.7766 43.8669C93.7766 44.015 93.8505 44.2373 93.9244 44.3855C93.4812 44.756 93.3334 44.6078 93.1857 44.5337Z" fill="white"/>
</g>
<g id="Group_23">
<path id="Vector_45" fill-rule="evenodd" clip-rule="evenodd" d="M79.1515 17.2653C79.0038 17.4135 78.856 17.6358 78.6345 17.784C78.4129 18.0063 78.4129 18.0804 78.6345 18.2286C78.9299 18.4509 79.2254 18.5991 79.5208 18.8214C79.8901 19.0437 80.3333 19.266 80.7027 19.4883C80.9242 19.5623 81.072 19.5624 81.2936 19.3401C80.8504 18.4509 79.964 17.9322 79.3731 17.043C79.2992 17.1171 79.2254 17.1912 79.1515 17.2653Z" fill="white"/>
</g>
</g>
<g id="Group_24">
<path id="Vector_46" d="M99.0211 63.3551H0.929688V63.7256H99.0211V63.3551Z" fill="white"/>
</g>
</g>
</g>
</g>
</svg>
