<svg width="40" height="40" viewBox="0 0 40 40" fill="none" xmlns="http://www.w3.org/2000/svg">
<rect width="40" height="40" fill="#E0DDDD"/>
<g id="Home page" clip-path="url(#clip0_0_1)">
<rect width="1440" height="4740" transform="translate(-746 -3823)" fill="white"/>
<g id="Group 11.1">
</g>
<g id="Lists/Iconic Caption" filter="url(#filter0_d_0_1)">
<g id="Colors/Light">
<g id="BG light" filter="url(#filter1_d_0_1)">
<rect x="-8" y="-16" width="264" height="72" rx="3" fill="white"/>
</g>
<g id="Misc/Avatar 40x40.1.1.1">
<g id="Misc/Avatar 40x40.1">
<rect id="Avatar 40x40" width="40" height="40" rx="20" fill="#716754"/>
<g id="Group 2">
<path id="Vector" d="M10.6914 8.17114H25.1869L29 11.9916V31.6726H10.6914V8.17114Z" fill="#F8F8F8"/>
<g id="Group">
<path id="Vector_2" d="M10.6914 8.17139H25.1869L29 11.9919V13.8242H10.6914V8.17139Z" fill="#FF8C8A"/>
<path id="Vector_3" d="M25.187 8.17114V11.9916H29.0001L25.187 8.17114Z" fill="#EBECEC"/>
<path id="Vector_4" d="M11.9968 12.6965V9.38047H13.0725C13.4805 9.38047 13.7476 9.3953 13.8663 9.43239C14.0591 9.48432 14.2149 9.58818 14.341 9.7588C14.4672 9.92201 14.5339 10.1446 14.5339 10.4042C14.5339 10.6045 14.4968 10.7751 14.4226 10.9161C14.3485 11.057 14.252 11.1609 14.1407 11.2425C14.0295 11.3241 13.9108 11.376 13.7921 11.3983C13.6289 11.4279 13.3989 11.4428 13.0947 11.4428H12.6571V12.6965H11.9968ZM12.6719 9.93684V10.879H13.0354C13.3025 10.879 13.4731 10.8641 13.5621 10.8271C13.6511 10.79 13.7179 10.738 13.7698 10.6638C13.8218 10.5897 13.844 10.5006 13.844 10.4042C13.844 10.2855 13.8069 10.1817 13.7401 10.1075C13.666 10.0259 13.5769 9.98135 13.4731 9.9591C13.3915 9.94426 13.2357 9.93684 12.9909 9.93684H12.6719ZM15.0903 9.37305H16.3143C16.5888 9.37305 16.7965 9.3953 16.9449 9.43981C17.1378 9.49916 17.3084 9.5956 17.4419 9.74397C17.5829 9.89233 17.6867 10.0704 17.7609 10.2855C17.8351 10.5006 17.8722 10.7603 17.8722 11.0719C17.8722 11.3463 17.8351 11.5763 17.7683 11.7766C17.6867 12.0214 17.568 12.2143 17.4123 12.3627C17.2936 12.4739 17.1378 12.563 16.9449 12.6297C16.7965 12.6742 16.6037 12.7039 16.3514 12.7039H15.0903V9.37305ZM15.7654 9.93684V12.1327H16.2624C16.4479 12.1327 16.5814 12.1253 16.663 12.103C16.7743 12.0733 16.8633 12.0288 16.9301 11.9621C17.0042 11.8953 17.0636 11.7914 17.1081 11.6431C17.1526 11.4947 17.1749 11.2944 17.1749 11.0348C17.1749 10.7751 17.1526 10.5822 17.1081 10.4413C17.0636 10.3003 16.9968 10.1965 16.9226 10.1223C16.841 10.0481 16.7372 9.99619 16.6111 9.96652C16.5146 9.94426 16.3366 9.93684 16.0621 9.93684H15.7654ZM18.436 12.6965V9.38047H20.7134V9.94426H19.1037V10.7232H20.4909V11.287H19.1037V12.6965H18.436Z" fill="#F8F8F8"/>
<path id="Vector_5" d="M25.7435 25.0778C26.1515 25.0852 26.7747 25.0852 27.0862 25.3597L27.3459 25.6342C27.4942 25.4487 27.5239 25.1001 27.3014 24.8775C26.5373 24.106 23.7331 24.5511 22.739 24.655C22.6278 24.6624 22.4942 24.5437 22.4126 24.4843C22.0491 24.2544 21.4482 23.7128 21.1663 23.3864L20.5877 22.6594C20.15 22.0585 19.7791 21.3389 19.4972 20.6268C19.4082 20.4116 19.4304 20.4413 19.4824 20.2113C19.512 20.0704 19.5417 19.922 19.564 19.7737C19.6752 19.1728 19.7494 18.5051 19.7198 17.8746C19.5936 17.8523 19.6233 17.9191 19.5936 18.0229L19.2005 19.2989C19.1856 19.336 19.1782 19.3656 19.1634 19.4027C19.156 19.4176 19.1485 19.4398 19.1485 19.4547L19.1189 19.4992C19.0521 19.3582 18.9779 18.9725 18.9408 18.7944C18.785 18.0748 18.6812 17.155 18.7257 16.4205C18.7554 15.9235 18.9334 15.1297 19.3414 15.8197C19.4527 15.9977 19.5417 16.1906 19.6307 16.3983L19.8607 17.0363C19.9275 16.7766 19.9349 16.517 19.883 16.2499C19.8014 15.8642 19.6975 15.8197 19.6011 15.6639C19.5417 15.6342 19.5195 15.5897 19.4527 15.5452C19.4008 15.5081 19.3488 15.4858 19.2895 15.4487C18.9557 15.3449 18.8963 15.3078 18.5328 15.3968C18.4883 15.4191 18.4438 15.4413 18.3993 15.4636L18.3103 15.5303C18.288 15.5526 18.3103 15.5378 18.2732 15.5526C18.2509 15.5971 18.2064 15.6194 18.1322 15.7529C17.9913 16.0051 17.969 16.3019 17.9616 16.5912C17.9245 17.83 18.2583 19.4621 18.6367 20.6268C18.6738 20.7381 18.6293 20.7826 18.5922 20.8864C18.4364 21.2722 18.2509 21.6728 18.0877 22.0511C17.7094 22.9339 16.7672 24.7737 16.2925 25.6268C15.9735 26.198 15.6842 26.8063 15.3577 27.3701C15.1871 27.6594 15.0017 27.9339 14.8162 28.1861C14.6753 28.379 14.0669 29.1357 13.8963 29.284C13.7776 29.3805 13.6812 29.5066 13.5625 29.6104C13.4957 29.6698 13.4586 29.7217 13.3845 29.7811C13.3251 29.833 13.2732 29.8849 13.2064 29.9369C13.1322 29.9962 12.9245 30.2188 12.8058 30.1372C12.5758 29.8998 13.7183 28.4309 13.9928 28.1639L14.9349 27.1921C14.5417 27.3256 14.0595 27.6223 13.7628 27.83C13.2954 28.1639 12.2494 29.2321 12.1975 29.8478C12.1456 30.4858 13.1396 30.8419 13.9186 30.33C13.9928 30.2855 14.1263 30.1817 14.1708 30.1297C14.5862 29.6846 14.8014 29.3805 15.15 28.8686C15.5803 28.2306 15.9661 27.6001 16.3592 26.9324C16.4186 26.8286 16.5076 26.8137 16.6189 26.7618C18.2361 25.968 20.4616 25.471 22.2939 25.2559C22.4423 25.241 22.4868 25.3004 22.6055 25.3671C22.7094 25.4265 22.791 25.471 22.8948 25.5303C23.4364 25.8197 24.1782 26.1461 24.7791 26.3241C25.6248 26.5689 27.2346 26.8805 27.3162 25.7603L27.2272 25.8345C26.8266 26.1461 25.7657 25.9013 25.3577 25.7826C25.0239 25.6861 23.8815 25.3152 23.6367 25.152C24.334 25.1001 25.0758 25.0704 25.7435 25.0778ZM20.3874 25.0778C19.4082 25.3004 18.2435 25.6119 17.331 26.0125C17.1678 26.0867 16.9379 26.2128 16.7969 26.2573C16.8266 26.1757 16.9008 26.057 16.9527 25.9754C17.2643 25.4562 18.3622 23.3864 18.5699 22.9191C18.6589 22.7188 18.7405 22.5333 18.8296 22.3256C18.9112 22.1253 18.9779 21.9102 19.0669 21.7099C19.1411 21.8137 19.245 22.0659 19.3117 22.1846C19.5862 22.7039 19.8459 23.0229 20.202 23.4458C20.3132 23.5793 20.4393 23.7054 20.5506 23.8241L21.3073 24.4918C21.426 24.5882 21.6115 24.6995 21.7153 24.7959L20.3874 25.0778Z" fill="#FA7876"/>
</g>
</g>
</g>
</g>
</g>
</g>
</g>
<defs>
<filter id="filter0_d_0_1" x="-12" y="-16" width="272" height="80" filterUnits="userSpaceOnUse" color-interpolation-filters="sRGB">
<feFlood flood-opacity="0" result="BackgroundImageFix"/>
<feColorMatrix in="SourceAlpha" type="matrix" values="0 0 0 0 0 0 0 0 0 0 0 0 0 0 0 0 0 0 127 0" result="hardAlpha"/>
<feOffset dy="4"/>
<feGaussianBlur stdDeviation="2"/>
<feColorMatrix type="matrix" values="0 0 0 0 0 0 0 0 0 0 0 0 0 0 0 0 0 0 0.25 0"/>
<feBlend mode="soft-light" in2="BackgroundImageFix" result="effect1_dropShadow_0_1"/>
<feBlend mode="normal" in="SourceGraphic" in2="effect1_dropShadow_0_1" result="shape"/>
</filter>
<filter id="filter1_d_0_1" x="-16" y="-20" width="280" height="88" filterUnits="userSpaceOnUse" color-interpolation-filters="sRGB">
<feFlood flood-opacity="0" result="BackgroundImageFix"/>
<feColorMatrix in="SourceAlpha" type="matrix" values="0 0 0 0 0 0 0 0 0 0 0 0 0 0 0 0 0 0 127 0" result="hardAlpha"/>
<feOffset dy="4"/>
<feGaussianBlur stdDeviation="4"/>
<feColorMatrix type="matrix" values="0 0 0 0 0.690196 0 0 0 0 0.745098 0 0 0 0 0.772549 0 0 0 0.24 0"/>
<feBlend mode="normal" in2="BackgroundImageFix" result="effect1_dropShadow_0_1"/>
<feBlend mode="normal" in="SourceGraphic" in2="effect1_dropShadow_0_1" result="shape"/>
</filter>
<clipPath id="clip0_0_1">
<rect width="1440" height="4740" fill="white" transform="translate(-746 -3823)"/>
</clipPath>
</defs>
</svg>
